<?xml version="1.0" encoding="utf-8"?>
<!-- Generator: Adobe Illustrator 16.0.0, SVG Export Plug-In . SVG Version: 6.00 Build 0)  -->
<!DOCTYPE svg PUBLIC "-//W3C//DTD SVG 1.1//EN" "http://www.w3.org/Graphics/SVG/1.1/DTD/svg11.dtd">
<svg version="1.1" id="Layer_1" xmlns="http://www.w3.org/2000/svg" xmlns:xlink="http://www.w3.org/1999/xlink" x="0px" y="0px"
	 width="540px" height="521px" viewBox="0 0 540 521" style="enable-background:new 0 0 540 521;" xml:space="preserve">
<g>
	<rect x="122" y="6" style="fill:#00A99D;" width="296" height="143"/>
	<text transform="matrix(1 0 0 1 165.0322 90.1738)" style="font-family:'OCRAStd'; font-size:26.5075;">RENDER TREE</text>
</g>
<g>
	
		<image style="overflow:visible;opacity:0.75;" width="270" height="138" xlink:href="A0CDB23D.png"  transform="matrix(1 0 0 1 116 312)">
	</image>
	<g>
		<g>
			<defs>
				<rect id="SVGID_1_" x="125.5" y="321.5" width="86" height="85"/>
			</defs>
			<clipPath id="SVGID_2_">
				<use xlink:href="#SVGID_1_"  style="overflow:visible;"/>
			</clipPath>
		</g>
		<g>
			<defs>
				<rect id="SVGID_3_" x="125.5" y="321.5" width="86" height="85"/>
			</defs>
			<clipPath id="SVGID_4_">
				<use xlink:href="#SVGID_3_"  style="overflow:visible;"/>
			</clipPath>
			<g style="clip-path:url(#SVGID_4_);">
				<rect x="126" y="321" style="fill:#00A99D;" width="251" height="120"/>
				<text transform="matrix(1 0 0 1 162.9512 391.7637)" style="font-family:'OCRAStd'; font-size:22.4295;">RENDER TREE</text>
			</g>
			<use xlink:href="#SVGID_3_"  style="overflow:visible;fill:none;stroke:#AF2A77;stroke-miterlimit:10;"/>
		</g>
		<g>
			<defs>
				<rect id="SVGID_5_" x="125.5" y="321.5" width="86" height="85"/>
			</defs>
			<clipPath id="SVGID_6_">
				<use xlink:href="#SVGID_5_"  style="overflow:visible;"/>
			</clipPath>
		</g>
	</g>
</g>
<g>
	
		<image style="overflow:visible;opacity:0.75;" width="333" height="180" xlink:href="A0CDB23F.png"  transform="matrix(1 0 0 1 93 296)">
	</image>
	<g>
		<g>
			<defs>
				<rect id="SVGID_7_" x="111.5" y="398.5" width="296" height="59"/>
			</defs>
			<clipPath id="SVGID_8_">
				<use xlink:href="#SVGID_7_"  style="overflow:visible;"/>
			</clipPath>
		</g>
		<g>
			<defs>
				<rect id="SVGID_9_" x="111.5" y="398.5" width="296" height="59"/>
			</defs>
			<clipPath id="SVGID_10_">
				<use xlink:href="#SVGID_9_"  style="overflow:visible;"/>
			</clipPath>
			<g style="clip-path:url(#SVGID_10_);">
				<rect x="111.5" y="314.5" style="fill:#00A99D;stroke:#AF2A77;stroke-miterlimit:10;" width="296" height="143"/>
				<text transform="matrix(1 0 0 1 155.0322 398.1738)" style="stroke:#AF2A77; font-family:'OCRAStd'; font-size:26.5075;">RENDER TREE</text>
			</g>
			<use xlink:href="#SVGID_9_"  style="overflow:visible;fill:none;stroke:#00703A;stroke-miterlimit:10;"/>
		</g>
		<g>
			<defs>
				<rect id="SVGID_11_" x="111.5" y="398.5" width="296" height="59"/>
			</defs>
			<clipPath id="SVGID_12_">
				<use xlink:href="#SVGID_11_"  style="overflow:visible;"/>
			</clipPath>
		</g>
	</g>
</g>
<g>
	
		<image style="overflow:visible;opacity:0.75;" width="314" height="161" xlink:href="A0CDB23A.png"  transform="matrix(1 0 0 1 108 310)">
	</image>
	<g>
		<g>
			<defs>
				<rect id="SVGID_13_" x="220.5" y="312.5" width="114" height="114"/>
			</defs>
			<clipPath id="SVGID_14_">
				<use xlink:href="#SVGID_13_"  style="overflow:visible;"/>
			</clipPath>
		</g>
		<g>
			<defs>
				<rect id="SVGID_15_" x="220.5" y="312.5" width="114" height="114"/>
			</defs>
			<clipPath id="SVGID_16_">
				<use xlink:href="#SVGID_15_"  style="overflow:visible;"/>
			</clipPath>
			<g style="clip-path:url(#SVGID_16_);">
				<rect x="110" y="312" style="fill:#00A99D;" width="296" height="143"/>
				<text transform="matrix(1 0 0 1 153.0322 396.1738)" style="font-family:'OCRAStd'; font-size:26.5075;">RENDER TREE</text>
			</g>
			<use xlink:href="#SVGID_15_"  style="overflow:visible;fill:none;stroke:#936052;stroke-miterlimit:10;"/>
		</g>
		<g>
			<defs>
				<rect id="SVGID_17_" x="220.5" y="312.5" width="114" height="114"/>
			</defs>
			<clipPath id="SVGID_18_">
				<use xlink:href="#SVGID_17_"  style="overflow:visible;"/>
			</clipPath>
		</g>
	</g>
</g>
<g>
	
		<image style="overflow:visible;opacity:0.75;" width="407" height="221" xlink:href="A0CDB23B.png"  transform="matrix(1 0 0 1 46 262)">
	</image>
	<g>
		<g>
			<defs>
				<rect id="SVGID_19_" x="323.5" y="285.5" width="122" height="129"/>
			</defs>
			<clipPath id="SVGID_20_">
				<use xlink:href="#SVGID_19_"  style="overflow:visible;"/>
			</clipPath>
		</g>
		<g>
			<defs>
				<rect id="SVGID_21_" x="323.5" y="285.5" width="122" height="129"/>
			</defs>
			<clipPath id="SVGID_22_">
				<use xlink:href="#SVGID_21_"  style="overflow:visible;"/>
			</clipPath>
			<g style="clip-path:url(#SVGID_22_);">
				<polygon style="fill:#00A99D;" points="52,436 447,477 447,286 52,268 				"/>
				<text transform="matrix(1 0 0 1 109.376 398.2324)" style="font-family:'OCRAStd'; font-size:35.3433;">RENDER TREE</text>
			</g>
			<use xlink:href="#SVGID_21_"  style="overflow:visible;fill:none;stroke:#B69020;stroke-miterlimit:10;"/>
		</g>
		<g>
			<defs>
				<rect id="SVGID_23_" x="323.5" y="285.5" width="122" height="129"/>
			</defs>
			<clipPath id="SVGID_24_">
				<use xlink:href="#SVGID_23_"  style="overflow:visible;"/>
			</clipPath>
		</g>
	</g>
</g>
<rect x="122" y="178" width="296" height="51"/>
<text transform="matrix(1 0 0 1 238 213)" style="fill:#616162; font-family:'OCRAStd'; font-size:26.5075;">GPU</text>
<rect x="121.5" y="104.5" style="fill:none;stroke:#006162;stroke-miterlimit:10;" width="296" height="45"/>
<rect x="121.5" y="6.5" style="fill:none;stroke:#006162;stroke-miterlimit:10;" width="99" height="98"/>
<rect x="323.5" y="6.5" style="fill:none;stroke:#006162;stroke-miterlimit:10;" width="94" height="98"/>
<rect x="220.5" y="6.5" style="fill:none;stroke:#006162;stroke-miterlimit:10;" width="103" height="98"/>
<g>
	<g>
		<line style="fill:none;stroke:#006162;stroke-width:3;stroke-miterlimit:10;" x1="270.5" y1="150" x2="270.5" y2="170"/>
		<g>
			<polygon style="fill:#006162;" points="258.23,159.81 260.43,157.76 270.5,168.6 280.57,157.76 282.77,159.81 270.5,173 			"/>
		</g>
	</g>
</g>
<g>
	<g>
		<line style="fill:none;stroke:#006162;stroke-width:3;stroke-miterlimit:10;" x1="170.5" y1="244" x2="170.5" y2="294"/>
		<g>
			<polygon style="fill:#006162;" points="158.23,283.81 160.43,281.76 170.5,292.6 180.57,281.76 182.77,283.81 170.5,297 			"/>
		</g>
	</g>
</g>
<g>
	<g>
		<line style="fill:none;stroke:#006162;stroke-width:3;stroke-miterlimit:10;" x1="272.5" y1="244" x2="272.5" y2="294"/>
		<g>
			<polygon style="fill:#006162;" points="260.23,283.81 262.43,281.76 272.5,292.6 282.57,281.76 284.77,283.81 272.5,297 			"/>
		</g>
	</g>
</g>
<g>
	<g>
		<line style="fill:none;stroke:#006162;stroke-width:3;stroke-miterlimit:10;" x1="378.5" y1="244" x2="378.5" y2="268"/>
		<g>
			<polygon style="fill:#006162;" points="366.23,257.81 368.43,255.76 378.5,266.6 388.57,255.76 390.77,257.81 378.5,271 			"/>
		</g>
	</g>
</g>
<text transform="matrix(1 0 0 1 4.5 495)" style="font-family:'OCRAStd'; font-size:26.5075;">texture bitmaps in video RAM</text>
</svg>
