<?xml version="1.0" encoding="utf-8"?>
<!-- Generator: Adobe Illustrator 16.0.0, SVG Export Plug-In . SVG Version: 6.00 Build 0)  -->
<!DOCTYPE svg PUBLIC "-//W3C//DTD SVG 1.1//EN" "http://www.w3.org/Graphics/SVG/1.1/DTD/svg11.dtd">
<svg version="1.1" id="Layer_1" xmlns="http://www.w3.org/2000/svg" xmlns:xlink="http://www.w3.org/1999/xlink" x="0px" y="0px"
	 width="540px" height="521px" viewBox="0 0 540 521" enable-background="new 0 0 540 521" xml:space="preserve">
<rect x="50" y="50.082" fill="#E6E6E6" width="168.991" height="68.687"/>
<rect x="318.205" y="50.082" fill="#E6E6E6" width="168.991" height="68.687"/>
<g>
	<path fill="#F15A24" d="M79.24,33.927c0.262,0.17,0.419,0.341,0.432,0.667c0,0.366-0.314,0.72-0.68,0.72
		c-0.222,0-0.405-0.118-0.563-0.222l-5.374-3.57c-0.288-0.183-0.484-0.327-0.484-0.706c-0.013-0.367,0.196-0.523,0.484-0.706
		l5.387-3.583c0.157-0.104,0.34-0.196,0.537-0.196c0.379,0,0.68,0.34,0.693,0.706c0,0.341-0.209,0.522-0.458,0.694l-4.655,3.085
		L79.24,33.927z"/>
	<path fill="#F15A24" d="M85.965,30.41c-0.13,0-0.261,0.039-0.392,0.117l-1.857,1.164v3.648c0,0.432-0.092,0.863-0.628,0.863
		c-0.537,0-0.628-0.431-0.628-0.863v-7.911c0-0.431,0.091-0.863,0.628-0.863c0.536,0,0.628,0.432,0.628,0.863v2.812l1.021-0.667
		c0.327-0.209,0.707-0.418,1.125-0.418H86.7c0.249,0,0.692,0,1.215,0.457c0.563,0.484,0.537,1.021,0.563,1.702l0.131,3.948
		c0.013,0.445-0.053,0.941-0.615,0.941c-0.51,0-0.614-0.431-0.628-0.851l-0.131-3.871c-0.026-0.602,0.014-1.071-0.693-1.071
		L85.965,30.41L85.965,30.41z"/>
	<path fill="#F15A24" d="M94.405,33.835c0,0.707-0.026,1.113,0.837,1.113h0.64c0.51,0,0.746-0.04,0.876-0.55
		c0.079-0.3,0.314-0.51,0.628-0.51c0.354,0,0.641,0.275,0.641,0.628s-0.222,0.798-0.432,1.045c-0.458,0.549-1.058,0.641-1.726,0.641
		h-0.641c-0.627,0-1.176-0.144-1.621-0.628c-0.484-0.536-0.458-1.071-0.458-1.751V30.41h-0.406c-0.365,0-0.864-0.079-0.864-0.628
		c0-0.537,0.445-0.628,0.864-0.628h0.406v-1.281c0-0.433,0.091-0.864,0.627-0.864c0.537,0,0.628,0.431,0.628,0.864v1.281h2.105
		c0.418,0,0.864,0.091,0.864,0.628c0,0.548-0.497,0.628-0.864,0.628h-2.105L94.405,33.835L94.405,33.835z"/>
	<path fill="#F15A24" d="M105.002,31.259v4.08c0,0.432-0.09,0.863-0.627,0.863s-0.628-0.431-0.628-0.863v-4.197
		c0-0.21,0.026-0.602-0.3-0.602c-0.144,0-0.235,0.117-0.34,0.208l-0.549,0.51v4.08c0,0.432-0.092,0.863-0.628,0.863
		c-0.536,0-0.627-0.431-0.627-0.863v-5.295c0-0.445,0.118-0.889,0.653-0.889c0.314,0,0.523,0.209,0.603,0.497l0.104-0.079
		c0.327-0.248,0.522-0.418,0.954-0.418c0.484,0,0.863,0.235,1.15,0.628l0.105-0.104c0.392-0.393,0.548-0.523,1.098-0.523
		c0.419,0,0.797,0.183,1.045,0.51c0.314,0.405,0.288,0.771,0.301,1.255l0.131,4.342c0.014,0.444-0.052,0.94-0.615,0.94
		c-0.51,0-0.614-0.431-0.628-0.85l-0.13-4.146c-0.014-0.223,0.052-0.667-0.288-0.667c-0.183,0-0.418,0.313-0.522,0.431
		L105.002,31.259z"/>
	<path fill="#F15A24" d="M114.448,34.948h0.941c0.418,0,0.864,0.092,0.864,0.627c0,0.549-0.498,0.628-0.864,0.628h-3.19
		c-0.366,0-0.863-0.079-0.863-0.628c0-0.536,0.445-0.627,0.863-0.627h0.995v-7.127h-0.995c-0.366,0-0.863-0.079-0.863-0.628
		c0-0.537,0.445-0.628,0.863-0.628h1.32c0.72,0,0.929,0.131,0.929,0.876V34.948z"/>
	<path fill="#F15A24" d="M124.782,30.816l-4.655-3.086c-0.249-0.17-0.458-0.353-0.458-0.694c0.013-0.366,0.314-0.706,0.693-0.706
		c0.196,0,0.379,0.092,0.536,0.196l5.388,3.583c0.288,0.183,0.497,0.34,0.484,0.706c0,0.379-0.196,0.523-0.484,0.706l-5.374,3.57
		c-0.157,0.104-0.34,0.223-0.563,0.223c-0.365,0-0.68-0.354-0.68-0.72c0.013-0.327,0.17-0.497,0.432-0.667L124.782,30.816z"/>
	<path fill="#F15A24" d="M135.758,33.927c0.261,0.17,0.418,0.341,0.432,0.667c0,0.366-0.314,0.72-0.68,0.72
		c-0.223,0-0.406-0.118-0.563-0.222l-5.374-3.57c-0.288-0.183-0.484-0.327-0.484-0.706c-0.013-0.367,0.196-0.523,0.484-0.706
		l5.387-3.583c0.157-0.104,0.34-0.196,0.537-0.196c0.379,0,0.68,0.34,0.693,0.706c0,0.341-0.209,0.522-0.458,0.694l-4.655,3.085
		L135.758,33.927z"/>
	<path fill="#F15A24" d="M140.118,35.744c-0.157,0.275-0.314,0.458-0.64,0.458s-0.654-0.275-0.654-0.613
		c0-0.249,0.156-0.472,0.288-0.681l4.89-8.382c0.157-0.262,0.314-0.497,0.641-0.497c0.34,0,0.64,0.275,0.64,0.615
		c0,0.209-0.065,0.366-0.144,0.51L140.118,35.744z"/>
	<path fill="#F15A24" d="M151.904,30.41c-0.131,0-0.262,0.039-0.393,0.117l-1.857,1.164v3.648c0,0.432-0.091,0.863-0.627,0.863
		c-0.537,0-0.628-0.431-0.628-0.863v-7.911c0-0.431,0.092-0.863,0.628-0.863c0.536,0,0.627,0.432,0.627,0.863v2.812l1.021-0.667
		c0.328-0.209,0.707-0.418,1.125-0.418h0.837c0.249,0,0.692,0,1.215,0.457c0.563,0.484,0.537,1.021,0.563,1.702l0.131,3.948
		c0.013,0.445-0.053,0.941-0.615,0.941c-0.51,0-0.614-0.431-0.628-0.851l-0.131-3.871c-0.026-0.602,0.013-1.071-0.693-1.071
		L151.904,30.41L151.904,30.41z"/>
	<path fill="#F15A24" d="M160.344,33.835c0,0.707-0.026,1.113,0.837,1.113h0.64c0.511,0,0.746-0.04,0.877-0.55
		c0.078-0.3,0.313-0.51,0.627-0.51c0.354,0,0.642,0.275,0.642,0.628s-0.223,0.798-0.432,1.045c-0.458,0.549-1.059,0.641-1.726,0.641
		h-0.642c-0.627,0-1.176-0.144-1.621-0.628c-0.484-0.536-0.458-1.071-0.458-1.751V30.41h-0.406c-0.365,0-0.863-0.079-0.863-0.628
		c0-0.537,0.444-0.628,0.863-0.628h0.406v-1.281c0-0.433,0.091-0.864,0.627-0.864c0.537,0,0.628,0.431,0.628,0.864v1.281h2.105
		c0.418,0,0.863,0.091,0.863,0.628c0,0.548-0.497,0.628-0.863,0.628h-2.105L160.344,33.835L160.344,33.835z"/>
	<path fill="#F15A24" d="M170.939,31.259v4.08c0,0.432-0.091,0.863-0.627,0.863c-0.537,0-0.627-0.431-0.627-0.863v-4.197
		c0-0.21,0.026-0.602-0.301-0.602c-0.144,0-0.235,0.117-0.34,0.208l-0.549,0.51v4.08c0,0.432-0.092,0.863-0.628,0.863
		c-0.536,0-0.627-0.431-0.627-0.863v-5.295c0-0.445,0.118-0.889,0.654-0.889c0.314,0,0.523,0.209,0.602,0.497l0.104-0.079
		c0.328-0.248,0.522-0.418,0.954-0.418c0.484,0,0.863,0.235,1.15,0.628l0.105-0.104c0.392-0.393,0.549-0.523,1.098-0.523
		c0.418,0,0.797,0.183,1.045,0.51c0.314,0.405,0.288,0.771,0.301,1.255l0.131,4.342c0.013,0.444-0.052,0.94-0.615,0.94
		c-0.51,0-0.614-0.431-0.628-0.85l-0.13-4.146c-0.014-0.223,0.052-0.667-0.288-0.667c-0.183,0-0.419,0.313-0.522,0.431
		L170.939,31.259z"/>
	<path fill="#F15A24" d="M180.386,34.948h0.941c0.418,0,0.863,0.092,0.863,0.627c0,0.549-0.497,0.628-0.863,0.628h-3.19
		c-0.367,0-0.864-0.079-0.864-0.628c0-0.536,0.445-0.627,0.864-0.627h0.994v-7.127h-0.994c-0.367,0-0.864-0.079-0.864-0.628
		c0-0.537,0.445-0.628,0.864-0.628h1.32c0.719,0,0.929,0.131,0.929,0.876V34.948L180.386,34.948z"/>
	<path fill="#F15A24" d="M190.72,30.816l-4.655-3.086c-0.249-0.17-0.458-0.353-0.458-0.694c0.013-0.366,0.314-0.706,0.694-0.706
		c0.196,0,0.379,0.092,0.536,0.196l5.387,3.583c0.288,0.183,0.497,0.34,0.484,0.706c0,0.379-0.196,0.523-0.484,0.706l-5.374,3.57
		c-0.157,0.104-0.34,0.223-0.563,0.223c-0.365,0-0.681-0.354-0.681-0.72c0.013-0.327,0.17-0.497,0.432-0.667L190.72,30.816z"/>
</g>
<g>
	<path fill="#00A99D" d="M374.861,33.438c-0.287,0-0.497,0-0.68-0.248c-0.145-0.196-0.145-0.341-0.145-0.589v-0.732
		c0-0.249,0-0.392,0.145-0.589c0.183-0.249,0.393-0.249,0.68-0.249h0.942c0.288,0,0.497,0,0.681,0.249
		c0.144,0.196,0.144,0.34,0.144,0.589v0.732c0,0.248,0,0.393-0.144,0.589c-0.184,0.248-0.393,0.248-0.681,0.248H374.861z"/>
	<path fill="#00A99D" d="M381.679,30.98c0-0.771,0.146-1.15,0.745-1.647l0.93-0.772c0.589-0.484,0.89-0.497,1.622-0.497h1.986
		c0.42,0,0.864,0.091,0.864,0.628c0,0.548-0.498,0.628-0.864,0.628h-2.209c-0.248,0-0.497,0.131-0.719,0.314l-0.758,0.641
		c-0.197,0.156-0.341,0.288-0.341,0.537v1.556c0,0.248,0.144,0.379,0.341,0.537l0.758,0.64c0.223,0.183,0.471,0.314,0.719,0.314
		h2.209c0.366,0,0.864,0.078,0.864,0.627c0,0.537-0.444,0.628-0.864,0.628h-1.986c-0.732,0-1.033-0.013-1.622-0.497l-0.93-0.772
		c-0.6-0.497-0.745-0.875-0.745-1.647V30.98z"/>
	<path fill="#00A99D" d="M393.244,29.32c-0.262,0-0.707-0.052-0.707,0.353c0,0.209,0.157,0.289,0.341,0.367l3.138,1.424
		c0.811,0.367,1.229,0.876,1.229,1.778c0,1.268-0.863,1.87-2.066,1.87h-1.935c-0.655,0-1.101-0.025-1.568-0.392
		c-0.236-0.183-0.577-0.419-0.577-0.733c0-0.352,0.301-0.627,0.654-0.627c0.197,0,0.34,0.065,0.484,0.223
		c0.222,0.248,0.615,0.274,1.008,0.274h1.699c0.445,0,1.045,0.039,1.045-0.694c0-0.3-0.365-0.498-0.653-0.628l-2.956-1.346
		c-0.691-0.314-1.099-0.72-1.099-1.53c0-0.993,0.786-1.595,1.728-1.595h2.145c0.692,0,0.979,0.04,1.451,0.432
		c0.234,0.196,0.497,0.353,0.497,0.706s-0.302,0.628-0.642,0.628c-0.236,0-0.379-0.092-0.536-0.262
		c-0.21-0.223-0.433-0.248-0.772-0.248L393.244,29.32L393.244,29.32z"/>
	<path fill="#00A99D" d="M402.663,29.32c-0.261,0-0.706-0.052-0.706,0.353c0,0.209,0.157,0.289,0.34,0.367l3.138,1.424
		c0.812,0.367,1.229,0.876,1.229,1.778c0,1.268-0.864,1.87-2.066,1.87h-1.936c-0.653,0-1.099-0.025-1.569-0.392
		c-0.234-0.183-0.575-0.419-0.575-0.733c0-0.352,0.301-0.627,0.654-0.627c0.195,0,0.341,0.065,0.484,0.223
		c0.223,0.248,0.614,0.274,1.007,0.274h1.7c0.445,0,1.046,0.039,1.046-0.694c0-0.3-0.366-0.498-0.654-0.628l-2.956-1.346
		c-0.692-0.314-1.098-0.72-1.098-1.53c0-0.993,0.786-1.595,1.726-1.595h2.145c0.693,0,0.98,0.04,1.451,0.432
		c0.236,0.196,0.497,0.353,0.497,0.706s-0.301,0.628-0.641,0.628c-0.235,0-0.38-0.092-0.537-0.262
		c-0.209-0.223-0.431-0.248-0.771-0.248L402.663,29.32L402.663,29.32z"/>
	<path fill="#00A99D" d="M415.588,33.804c0.34,0,0.654,0.183,0.654,0.655c0,0.471-0.314,0.654-0.654,0.654h-1.778
		c-0.484,0-0.838-0.091-1.163-0.483c-0.275-0.328-0.289-0.576-0.289-0.98v-2.065c0-0.681-0.169-0.903-0.862-0.903h-1.059
		c-0.341,0-0.654-0.183-0.654-0.655c0-0.471,0.313-0.654,0.654-0.654h1.059c0.693,0,0.862-0.223,0.862-0.903v-2.067
		c0-0.404,0.014-0.654,0.289-0.979c0.326-0.393,0.68-0.484,1.163-0.484h1.778c0.34,0,0.654,0.183,0.654,0.655
		c0,0.471-0.314,0.654-0.654,0.654h-1.923v2.34c0,0.562-0.117,1.033-0.522,1.437c0.393,0.433,0.522,0.903,0.522,1.453v2.327H415.588
		z"/>
	<path fill="#00A99D" d="M421.777,33.804v-2.327c0-0.549,0.131-1.02,0.522-1.453c-0.404-0.405-0.522-0.875-0.522-1.437v-2.34h-1.922
		c-0.341,0-0.655-0.183-0.655-0.654c0-0.472,0.314-0.655,0.655-0.655h1.778c0.483,0,0.837,0.092,1.162,0.484
		c0.274,0.327,0.288,0.576,0.288,0.979v2.067c0,0.68,0.17,0.903,0.864,0.903h1.059c0.341,0,0.653,0.183,0.653,0.654
		c0,0.472-0.313,0.655-0.653,0.655h-1.059c-0.694,0-0.864,0.222-0.864,0.903v2.065c0,0.406-0.014,0.654-0.288,0.98
		c-0.327,0.392-0.679,0.483-1.162,0.483h-1.778c-0.341,0-0.655-0.183-0.655-0.654c0-0.472,0.314-0.655,0.655-0.655H421.777z"/>
</g>
<polyline fill="none" stroke="#E6E6E6" stroke-width="5.4513" stroke-miterlimit="10" points="132.315,118.769 132.315,158.563 
	399.43,158.563 399.43,118.769 "/>
<g>
	<path d="M116.342,82.49h-0.484c-0.432,0-0.797-0.156-0.797-0.654c0-0.472,0.353-0.655,0.758-0.655h2.184
		c1.021,0,1.53,0.42,1.975,1.308l1.151,2.302c0.262,0.536,0.392,0.916,0.392,1.516c0,0.524-0.145,0.968-0.38,1.438l-1.189,2.381
		c-0.458,0.93-1.046,1.229-2.066,1.229h-2.171c-0.34,0-0.654-0.183-0.654-0.654c0-0.47,0.314-0.655,0.654-0.655h0.628V82.49z
		 M117.648,90.049h0.249c0.548,0,0.68-0.067,0.915-0.55l1.15-2.328c0.144-0.299,0.249-0.521,0.249-0.85
		c0-0.444-0.144-0.693-0.327-1.071l-1.086-2.21c-0.273-0.563-0.391-0.55-0.993-0.55h-0.157L117.648,90.049L117.648,90.049z"/>
	<path d="M130.599,84.857c0.249,0.51,0.34,0.889,0.34,1.451c0,0.628-0.17,1.021-0.432,1.557l-1.204,2.406
		c-0.314,0.627-0.837,1.085-1.595,1.085c-0.757,0-1.281-0.458-1.595-1.085l-1.204-2.406c-0.262-0.536-0.432-0.929-0.432-1.557
		c0-0.563,0.092-0.941,0.34-1.451l1.308-2.603c0.313-0.614,0.85-1.072,1.582-1.072c0.732,0,1.269,0.458,1.583,1.072L130.599,84.857z
		 M128.154,82.883c-0.105-0.21-0.17-0.393-0.445-0.393c-0.273,0-0.34,0.183-0.444,0.393l-1.177,2.367
		c-0.196,0.379-0.301,0.627-0.301,1.059c0,0.342,0.079,0.576,0.222,0.863l1.255,2.484c0.091,0.183,0.183,0.392,0.444,0.392
		c0.262,0,0.354-0.209,0.445-0.392l1.254-2.484c0.144-0.288,0.223-0.521,0.223-0.863c0-0.432-0.105-0.68-0.301-1.059L128.154,82.883
		z"/>
	<path d="M138.724,81.182h1.634v9.52c0,0.418-0.182,0.654-0.654,0.654c-0.471,0-0.654-0.235-0.654-0.654v-7.715h-0.026l-1.242,1.844
		v0.208c0,0.406-0.157,0.786-0.654,0.786c-0.471,0-0.654-0.38-0.654-0.786v-0.208l-1.242-1.844h-0.026v7.715
		c0,0.418-0.183,0.654-0.654,0.654c-0.471,0-0.654-0.235-0.654-0.654v-9.52h1.635l1.595,2.302L138.724,81.182z"/>
</g>
<g>
	<path d="M382.646,91.356c-0.979,0-1.544-0.391-1.961-1.243l-1.202-2.432c-0.223-0.444-0.354-0.863-0.354-1.373
		c0-0.574,0.105-0.929,0.365-1.451l1.203-2.419c0.445-0.902,1.008-1.255,2.015-1.255h2.223c0.288,0,0.654,0.159,0.654,0.655
		c0,0.47-0.354,0.653-0.654,0.653h-2.184c-0.563,0-0.654,0.052-0.901,0.55l-1.138,2.275c-0.17,0.354-0.274,0.589-0.274,0.994
		c0,0.366,0.117,0.589,0.274,0.903l1.112,2.261c0.261,0.537,0.392,0.576,0.98,0.576h2.131c0.288,0,0.655,0.156,0.655,0.654
		c0,0.471-0.354,0.654-0.655,0.654L382.646,91.356L382.646,91.356z"/>
	<path d="M394.549,88.793c0.263,0.34,0.458,0.641,0.458,1.085c0,0.979-0.746,1.477-1.647,1.477h-2.877
		c-0.498,0-0.929-0.091-1.32-0.418c-0.354-0.287-0.613-0.758-0.613-1.216c0-0.418,0.234-0.785,0.691-0.785
		c0.379,0,0.615,0.314,0.615,0.667c0,0.392,0.209,0.444,0.575,0.444h2.839c0.104,0,0.432,0.04,0.432-0.156
		c0-0.105-0.184-0.301-0.235-0.38l-4.486-5.766c-0.274-0.353-0.431-0.614-0.431-1.072c0-0.522,0.248-0.968,0.691-1.255
		c0.367-0.235,0.667-0.235,1.086-0.235h2.771c0.499,0,0.917,0.105,1.296,0.432c0.34,0.3,0.614,0.785,0.614,1.243
		c0,0.418-0.21,0.758-0.681,0.758c-0.393,0-0.628-0.25-0.628-0.615c0-0.443-0.222-0.51-0.628-0.51h-2.771
		c-0.144,0-0.445-0.04-0.445,0.183c0,0.118,0.146,0.275,0.196,0.354L394.549,88.793z"/>
	<path d="M403.971,88.793c0.261,0.34,0.457,0.641,0.457,1.085c0,0.979-0.745,1.477-1.647,1.477h-2.878
		c-0.496,0-0.928-0.091-1.32-0.418c-0.354-0.287-0.613-0.758-0.613-1.216c0-0.418,0.235-0.785,0.692-0.785
		c0.379,0,0.615,0.314,0.615,0.667c0,0.392,0.209,0.444,0.575,0.444h2.839c0.104,0,0.432,0.04,0.432-0.156
		c0-0.105-0.183-0.301-0.236-0.38l-4.484-5.766c-0.274-0.353-0.433-0.614-0.433-1.072c0-0.522,0.25-0.968,0.692-1.255
		c0.366-0.235,0.668-0.235,1.086-0.235h2.771c0.497,0,0.916,0.105,1.296,0.432c0.34,0.3,0.613,0.785,0.613,1.243
		c0,0.418-0.209,0.758-0.681,0.758c-0.393,0-0.628-0.25-0.628-0.615c0-0.443-0.223-0.51-0.627-0.51h-2.772
		c-0.143,0-0.445-0.04-0.445,0.183c0,0.118,0.145,0.275,0.197,0.354L403.971,88.793z"/>
	<path d="M413.508,84.857c0.249,0.51,0.341,0.889,0.341,1.451c0,0.628-0.171,1.021-0.433,1.557l-1.203,2.406
		c-0.315,0.627-0.838,1.085-1.596,1.085c-0.76,0-1.282-0.458-1.596-1.085l-1.204-2.406c-0.261-0.536-0.431-0.929-0.431-1.557
		c0-0.563,0.09-0.941,0.34-1.451l1.307-2.603c0.315-0.614,0.852-1.072,1.584-1.072c0.731,0,1.268,0.458,1.582,1.072L413.508,84.857z
		 M411.062,82.883c-0.104-0.21-0.169-0.393-0.443-0.393c-0.276,0-0.341,0.183-0.445,0.393l-1.178,2.367
		c-0.195,0.379-0.3,0.627-0.3,1.059c0,0.342,0.078,0.576,0.223,0.863l1.255,2.484c0.092,0.183,0.183,0.392,0.445,0.392
		c0.261,0,0.353-0.209,0.443-0.392l1.256-2.484c0.144-0.288,0.222-0.521,0.222-0.863c0-0.432-0.104-0.68-0.301-1.059L411.062,82.883
		z"/>
	<path d="M421.634,81.182h1.633v9.52c0,0.418-0.181,0.654-0.653,0.654c-0.471,0-0.654-0.235-0.654-0.654v-7.715h-0.025l-1.242,1.844
		v0.208c0,0.406-0.156,0.786-0.655,0.786c-0.471,0-0.653-0.38-0.653-0.786v-0.208l-1.242-1.844h-0.025v7.715
		c0,0.418-0.184,0.654-0.654,0.654c-0.472,0-0.655-0.235-0.655-0.654v-9.52h1.636l1.595,2.302L421.634,81.182z"/>
</g>
<line fill="none" stroke="#E6E6E6" stroke-width="5.4513" stroke-miterlimit="10" x1="265.327" y1="431.675" x2="265.327" y2="159.109"/>
<rect x="191.734" y="195.087" fill="#00A99D" width="146.096" height="70.867"/>
<g>
	<path d="M214.438,236.122c0,0.418-0.183,0.654-0.654,0.654s-0.654-0.235-0.654-0.654v-9.52h4.394c1.033,0,2.066,0.733,2.066,1.896
		v0.902c0,1.23-1.02,1.857-2.066,1.857h-1.204l2.942,4.211c0.144,0.196,0.327,0.443,0.327,0.693c0,0.367-0.3,0.613-0.666,0.613
		c-0.262,0-0.432-0.156-0.576-0.366l-3.608-5.152h-0.301L214.438,236.122L214.438,236.122z M214.438,229.95h2.903
		c0.365,0,0.941-0.024,0.941-0.549v-0.902c0-0.521-0.537-0.589-0.929-0.589h-2.915V229.95z"/>
	<path d="M228.355,235.469c0.34,0,0.654,0.183,0.654,0.654s-0.314,0.654-0.654,0.654h-5.806v-10.172h5.806
		c0.34,0,0.654,0.183,0.654,0.654c0,0.47-0.314,0.654-0.654,0.654h-4.498v3.126h1.922c0.34,0,0.654,0.182,0.654,0.655
		c0,0.47-0.314,0.653-0.654,0.653h-1.922v3.125h4.498V235.469z"/>
	<path d="M237.135,227.27c0-0.418,0.183-0.655,0.654-0.655c0.471,0,0.654,0.236,0.654,0.655v9.519h-1.726l-3.412-7.845v-0.014
		h-0.026v7.192c0,0.418-0.183,0.654-0.654,0.654c-0.47,0-0.654-0.235-0.654-0.654v-9.52h1.726l3.413,7.938h-0.013h0.026
		L237.135,227.27z"/>
	<path d="M242.672,227.909h-0.484c-0.432,0-0.797-0.156-0.797-0.654c0-0.472,0.354-0.655,0.758-0.655h2.184
		c1.021,0,1.53,0.419,1.975,1.308l1.151,2.302c0.262,0.536,0.392,0.916,0.392,1.516c0,0.524-0.144,0.969-0.379,1.438l-1.19,2.381
		c-0.458,0.93-1.046,1.229-2.066,1.229h-2.17c-0.34,0-0.654-0.183-0.654-0.654c0-0.47,0.314-0.653,0.654-0.653h0.628V227.909z
		 M243.979,235.469h0.249c0.548,0,0.68-0.067,0.915-0.549l1.15-2.329c0.144-0.299,0.249-0.522,0.249-0.849
		c0-0.445-0.144-0.694-0.327-1.072l-1.086-2.21c-0.273-0.562-0.391-0.549-0.993-0.549h-0.157v7.559H243.979z"/>
	<path d="M256.615,235.469c0.34,0,0.654,0.183,0.654,0.654s-0.314,0.654-0.654,0.654h-5.805v-10.172h5.805
		c0.34,0,0.654,0.183,0.654,0.654c0,0.47-0.314,0.654-0.654,0.654h-4.497v3.126h1.922c0.34,0,0.654,0.182,0.654,0.655
		c0,0.47-0.314,0.653-0.654,0.653h-1.922v3.125h4.497V235.469z"/>
	<path d="M261.537,236.122c0,0.418-0.183,0.654-0.654,0.654c-0.471,0-0.654-0.235-0.654-0.654v-9.52h4.394
		c1.032,0,2.066,0.733,2.066,1.896v0.902c0,1.23-1.02,1.857-2.066,1.857h-1.204l2.941,4.211c0.145,0.196,0.328,0.443,0.328,0.693
		c0,0.367-0.3,0.613-0.667,0.613c-0.261,0-0.431-0.156-0.576-0.366l-3.609-5.152h-0.301v4.866H261.537z M261.537,229.95h2.903
		c0.365,0,0.94-0.024,0.94-0.549v-0.902c0-0.521-0.536-0.589-0.929-0.589h-2.915V229.95z"/>
	<path d="M280.376,227.909v0.472c0,0.418-0.183,0.654-0.653,0.654c-0.472,0-0.654-0.235-0.654-0.654v-1.779h6.459v1.779
		c0,0.418-0.183,0.654-0.654,0.654c-0.471,0-0.653-0.235-0.653-0.654v-0.472h-1.27v8.212c0,0.418-0.183,0.653-0.654,0.653
		c-0.471,0-0.654-0.235-0.654-0.653v-8.212H280.376z"/>
	<path d="M289.796,236.122c0,0.418-0.183,0.654-0.654,0.654c-0.471,0-0.653-0.235-0.653-0.654v-9.52h4.393
		c1.032,0,2.066,0.733,2.066,1.896v0.902c0,1.23-1.021,1.857-2.066,1.857h-1.204l2.943,4.211c0.144,0.196,0.326,0.443,0.326,0.693
		c0,0.367-0.301,0.613-0.667,0.613c-0.261,0-0.432-0.156-0.575-0.366l-3.609-5.152h-0.3L289.796,236.122L289.796,236.122z
		 M289.796,229.95h2.902c0.366,0,0.942-0.024,0.942-0.549v-0.902c0-0.521-0.536-0.589-0.929-0.589h-2.917L289.796,229.95
		L289.796,229.95z"/>
	<path d="M303.714,235.469c0.339,0,0.654,0.183,0.654,0.654s-0.315,0.654-0.654,0.654h-5.807v-10.172h5.807
		c0.339,0,0.654,0.183,0.654,0.654c0,0.47-0.315,0.654-0.654,0.654h-4.499v3.126h1.923c0.341,0,0.653,0.182,0.653,0.655
		c0,0.47-0.313,0.653-0.653,0.653h-1.923v3.125h4.499V235.469z"/>
	<path d="M313.133,235.469c0.341,0,0.655,0.183,0.655,0.654s-0.314,0.654-0.655,0.654h-5.805v-10.172h5.805
		c0.341,0,0.655,0.183,0.655,0.654c0,0.47-0.314,0.654-0.655,0.654h-4.497v3.126h1.921c0.342,0,0.654,0.182,0.654,0.655
		c0,0.47-0.313,0.653-0.654,0.653h-1.921v3.125h4.497V235.469z"/>
</g>
<rect x="191.734" y="425.133" fill="#C3A6F0" width="146.096" height="70.867"/>
<g>
	<path d="M229.731,466.821c-0.98,0-1.543-0.391-1.962-1.242l-1.203-2.432c-0.223-0.444-0.354-0.863-0.354-1.374
		c0-0.574,0.104-0.928,0.365-1.451l1.204-2.419c0.445-0.901,1.006-1.255,2.014-1.255h2.223c0.287,0,0.654,0.158,0.654,0.654
		c0,0.471-0.353,0.654-0.654,0.654h-2.185c-0.562,0-0.654,0.052-0.901,0.549l-1.137,2.275c-0.17,0.354-0.275,0.589-0.275,0.993
		c0,0.366,0.118,0.589,0.275,0.903l1.111,2.262c0.261,0.536,0.393,0.574,0.981,0.574h2.132c0.288,0,0.654,0.158,0.654,0.655
		c0,0.471-0.353,0.653-0.654,0.653L229.731,466.821L229.731,466.821z"/>
	<path d="M241.752,460.322c0.249,0.51,0.34,0.89,0.34,1.451c0,0.629-0.17,1.021-0.432,1.557l-1.204,2.406
		c-0.314,0.627-0.837,1.085-1.595,1.085c-0.759,0-1.282-0.458-1.595-1.085l-1.204-2.406c-0.262-0.535-0.432-0.928-0.432-1.557
		c0-0.562,0.091-0.941,0.34-1.451l1.307-2.602c0.314-0.614,0.851-1.072,1.583-1.072c0.731,0,1.268,0.458,1.582,1.072
		L241.752,460.322z M239.308,458.349c-0.104-0.21-0.17-0.393-0.445-0.393c-0.274,0-0.34,0.183-0.445,0.393l-1.176,2.367
		c-0.196,0.379-0.301,0.627-0.301,1.058c0,0.342,0.079,0.576,0.223,0.864l1.255,2.483c0.091,0.184,0.183,0.392,0.445,0.392
		s0.353-0.208,0.445-0.392l1.255-2.483c0.144-0.288,0.223-0.522,0.223-0.864c0-0.431-0.105-0.679-0.301-1.058L239.308,458.349z"/>
	<path d="M249.878,456.648h1.634v9.52c0,0.418-0.182,0.653-0.654,0.653c-0.471,0-0.654-0.235-0.654-0.653v-7.715h-0.026
		l-1.242,1.844v0.208c0,0.405-0.157,0.784-0.654,0.784c-0.471,0-0.654-0.379-0.654-0.784v-0.208l-1.242-1.844h-0.026v7.715
		c0,0.418-0.183,0.653-0.654,0.653s-0.654-0.235-0.654-0.653v-9.52h1.635l1.595,2.302L249.878,456.648z"/>
	<path d="M255.781,466.168c0,0.418-0.183,0.653-0.654,0.653s-0.654-0.235-0.654-0.653v-9.52h4.34c0.602,0,1.034,0.092,1.503,0.536
		c0.563,0.523,0.614,1.007,0.614,1.714v1.777c0,0.667-0.052,1.138-0.536,1.674c-0.511,0.574-1.045,0.627-1.752,0.627h-2.863v3.191
		H255.781z M255.781,461.67h2.903c0.772,0,0.941-0.197,0.941-0.941v-1.83c0-0.747-0.17-0.942-0.941-0.942h-2.903V461.67z"/>
	<path d="M270.012,460.322c0.249,0.51,0.34,0.89,0.34,1.451c0,0.629-0.169,1.021-0.432,1.557l-1.204,2.406
		c-0.314,0.627-0.837,1.085-1.595,1.085c-0.758,0-1.281-0.458-1.595-1.085l-1.204-2.406c-0.262-0.535-0.432-0.928-0.432-1.557
		c0-0.562,0.091-0.941,0.34-1.451l1.307-2.602c0.314-0.614,0.851-1.072,1.583-1.072c0.732,0,1.269,0.458,1.583,1.072
		L270.012,460.322z M267.567,458.349c-0.105-0.21-0.17-0.393-0.445-0.393c-0.274,0-0.34,0.183-0.445,0.393l-1.176,2.367
		c-0.196,0.379-0.301,0.627-0.301,1.058c0,0.342,0.079,0.576,0.222,0.864l1.255,2.483c0.092,0.184,0.184,0.392,0.445,0.392
		c0.261,0,0.354-0.208,0.445-0.392l1.255-2.483c0.144-0.288,0.223-0.522,0.223-0.864c0-0.431-0.105-0.679-0.301-1.058
		L267.567,458.349z"/>
	<path d="M279.314,464.259c0.262,0.34,0.457,0.641,0.457,1.085c0,0.979-0.746,1.477-1.648,1.477h-2.877
		c-0.496,0-0.928-0.092-1.32-0.418c-0.353-0.288-0.613-0.759-0.613-1.216c0-0.419,0.235-0.785,0.692-0.785
		c0.38,0,0.614,0.314,0.614,0.667c0,0.392,0.209,0.443,0.576,0.443h2.838c0.104,0,0.432,0.04,0.432-0.156
		c0-0.105-0.184-0.302-0.235-0.38l-4.485-5.767c-0.275-0.353-0.432-0.614-0.432-1.072c0-0.521,0.248-0.968,0.692-1.255
		c0.366-0.235,0.667-0.235,1.086-0.235h2.771c0.497,0,0.915,0.104,1.295,0.432c0.341,0.301,0.614,0.785,0.614,1.243
		c0,0.418-0.209,0.758-0.681,0.758c-0.392,0-0.628-0.249-0.628-0.614c0-0.444-0.223-0.51-0.628-0.51h-2.771
		c-0.144,0-0.444-0.04-0.444,0.183c0,0.118,0.143,0.274,0.195,0.354L279.314,464.259z"/>
	<path d="M286.615,465.513h1.923c0.34,0,0.654,0.184,0.654,0.655c0,0.471-0.314,0.653-0.654,0.653h-5.151
		c-0.341,0-0.654-0.183-0.654-0.653c0-0.472,0.313-0.655,0.654-0.655h1.922v-7.558h-1.922c-0.341,0-0.654-0.184-0.654-0.654
		c0-0.472,0.313-0.654,0.654-0.654h5.151c0.34,0,0.654,0.183,0.654,0.654c0,0.471-0.314,0.654-0.654,0.654h-1.923V465.513z"/>
	<path d="M293.46,457.955v0.47c0,0.42-0.184,0.655-0.654,0.655c-0.472,0-0.654-0.235-0.654-0.655v-1.777h6.459v1.777
		c0,0.42-0.183,0.655-0.654,0.655c-0.47,0-0.653-0.235-0.653-0.655v-0.47h-1.27v8.212c0,0.418-0.183,0.653-0.654,0.653
		c-0.471,0-0.654-0.235-0.654-0.653v-8.212H293.46z"/>
</g>
<circle fill="#E6E6E6" cx="265.327" cy="159.108" r="12.2"/>
<path fill="#C69C6D" d="M264.539,154c0-0.552,0.449-1.003,1.003-1.003c0.553,0,1.002,0.451,1.002,1.003
	c0,0.553-0.449,1.003-1.002,1.003C264.988,155.003,264.539,154.553,264.539,154z M269.437,162.481
	c-0.479-0.277-0.643-0.89-0.366-1.369c0.276-0.479,0.89-0.643,1.369-0.366s0.643,0.889,0.367,1.369
	C270.529,162.593,269.916,162.758,269.437,162.481z M260.279,162.114c-0.275-0.48-0.112-1.092,0.368-1.369
	c0.479-0.277,1.092-0.113,1.369,0.366s0.113,1.092-0.366,1.369C261.17,162.757,260.556,162.593,260.279,162.114z M264.539,164.151
	c0-0.409,0.248-0.762,0.6-0.917v-1.696c-1.232-0.194-2.176-1.263-2.176-2.55c0-0.299,0.05-0.585,0.144-0.853l-1.366-0.789
	c-0.311,0.228-0.74,0.266-1.096,0.061c-0.479-0.277-0.645-0.89-0.366-1.371c0.276-0.478,0.89-0.643,1.369-0.366
	c0.355,0.206,0.537,0.593,0.497,0.977l1.347,0.777c0.472-0.618,1.217-1.018,2.053-1.018c0.835,0,1.578,0.397,2.049,1.013
	l1.346-0.778c-0.04-0.381,0.144-0.767,0.496-0.971c0.479-0.276,1.092-0.112,1.369,0.367c0.277,0.479,0.112,1.093-0.366,1.37
	c-0.358,0.207-0.789,0.168-1.101-0.063l-1.359,0.785c0.095,0.27,0.147,0.558,0.147,0.859c0,1.288-0.945,2.357-2.18,2.551v1.697
	c0.353,0.155,0.598,0.508,0.598,0.916c0,0.554-0.451,1.003-1.003,1.003S264.539,164.704,264.539,164.151z"/>
<circle fill="#FBB03B" cx="265.327" cy="344.453" r="53.057"/>
<g>
	<path d="M240.604,344.421c0,0.42-0.183,0.654-0.654,0.654c-0.471,0-0.654-0.234-0.654-0.654v-9.519h4.34
		c0.602,0,1.033,0.092,1.503,0.537c0.563,0.522,0.614,1.005,0.614,1.712v1.778c0,0.666-0.052,1.137-0.536,1.674
		c-0.511,0.573-1.046,0.628-1.752,0.628h-2.864v3.189H240.604z M240.604,339.924h2.903c0.772,0,0.941-0.196,0.941-0.941v-1.831
		c0-0.746-0.17-0.941-0.941-0.941h-2.903V339.924z"/>
	<path d="M251.279,335.57c0.104-0.354,0.249-0.667,0.667-0.667c0.432,0,0.588,0.326,0.68,0.667l2.523,8.852
		c0.091,0.315-0.262,0.654-0.628,0.654c-0.406,0-0.614-0.339-0.705-0.654l-0.484-1.569h-2.786l-0.497,1.569
		c-0.092,0.315-0.301,0.654-0.706,0.654c-0.366,0-0.719-0.339-0.627-0.654L251.279,335.57z M251.96,338h-0.027l-1.021,3.543h2.053
		L251.96,338z"/>
	<path d="M262.021,343.767h1.922c0.34,0,0.654,0.183,0.654,0.654c0,0.471-0.314,0.654-0.654,0.654h-5.152
		c-0.34,0-0.654-0.184-0.654-0.654c0-0.472,0.314-0.654,0.654-0.654h1.922v-7.558h-1.922c-0.34,0-0.654-0.183-0.654-0.653
		c0-0.472,0.314-0.655,0.654-0.655h5.152c0.34,0,0.654,0.184,0.654,0.655c0,0.471-0.314,0.653-0.654,0.653h-1.922V343.767z"/>
	<path d="M272.722,335.57c0-0.417,0.183-0.654,0.653-0.654c0.472,0,0.654,0.237,0.654,0.654v9.518h-1.726l-3.412-7.844v-0.013
		h-0.026v7.19c0,0.42-0.183,0.654-0.654,0.654s-0.654-0.234-0.654-0.654v-9.519h1.726l3.413,7.937h-0.013h0.026L272.722,335.57z"/>
	<path d="M278.283,336.209v0.471c0,0.419-0.184,0.655-0.654,0.655s-0.654-0.236-0.654-0.655v-1.778h6.459v1.778
		c0,0.419-0.183,0.655-0.654,0.655c-0.471,0-0.654-0.236-0.654-0.655v-0.471h-1.268v8.211c0,0.42-0.184,0.654-0.654,0.654
		s-0.654-0.234-0.654-0.654v-8.211H278.283z"/>
	<path d="M289.952,334.902c0.563,0,0.589,0.342,0.563,0.968l-0.235,4.483c-0.026,0.458-0.131,0.839-0.668,0.839
		c-0.535,0-0.641-0.381-0.667-0.839l-0.235-4.483c-0.039-0.626,0.014-0.968,0.576-0.968H289.952z M289.782,343.246
		c0.497,0,0.732,0.247,0.732,0.745v0.34c0,0.498-0.235,0.745-0.732,0.745h-0.34c-0.498,0-0.733-0.247-0.733-0.745v-0.34
		c0-0.498,0.235-0.745,0.733-0.745H289.782z"/>
</g>
<g>
	<path d="M232.912,350.946c0.112-0.14,0.189-0.252,0.379-0.252c0.184,0,0.324,0.176,0.324,0.352c0,0.119-0.078,0.217-0.14,0.303
		l-0.76,0.998c-0.183,0.241-0.183,0.254-0.183,0.55v1.068c0,0.295,0,0.311,0.183,0.55l0.738,0.977
		c0.071,0.1,0.162,0.205,0.162,0.325c0,0.197-0.148,0.351-0.338,0.351c-0.169,0-0.247-0.105-0.344-0.225l-0.697-0.858
		c-0.309-0.381-0.409-0.626-0.409-1.119v-1.068c0-0.484,0.098-0.739,0.409-1.118L232.912,350.946z"/>
	<path d="M236.137,352.875c0-0.248,0.028-0.499,0.338-0.499c0.268,0,0.338,0.225,0.338,0.45v0.273l0.528-0.436
		c0.189-0.155,0.387-0.288,0.597-0.288h0.542c0.26,0,0.479,0.084,0.662,0.267c0.226,0.225,0.302,0.457,0.302,0.767
		c0,0.232-0.043,0.472-0.33,0.472c-0.247,0-0.345-0.196-0.345-0.415c0-0.114,0-0.197-0.07-0.296
		c-0.085-0.118-0.246-0.118-0.409-0.118h-0.197c-0.127,0-0.219,0.063-0.338,0.161l-0.943,0.782v1.709
		c0,0.232-0.049,0.464-0.337,0.464c-0.289,0-0.338-0.231-0.338-0.464L236.137,352.875L236.137,352.875z"/>
	<path d="M242.445,356.167c-0.282,0-0.394,0-0.605-0.183l-0.289-0.253c-0.267-0.239-0.345-0.394-0.345-0.76v-1.302
		c0-0.357,0.049-0.569,0.332-0.808l0.238-0.205c0.317-0.275,0.472-0.281,0.746-0.281h0.619c0.332,0,0.486,0.035,0.747,0.246
		l0.274,0.218c0.31,0.247,0.352,0.507,0.352,0.881v0.541c0,0.386-0.063,0.5-0.464,0.5h-2.167v0.225c0,0.063,0.049,0.148,0.098,0.198
		l0.169,0.183c0.091,0.099,0.226,0.126,0.45,0.126h1.45c0.226,0,0.464,0.05,0.464,0.339c0,0.296-0.267,0.337-0.464,0.337h-1.604
		V356.167z M241.881,354.086h1.956v-0.409c0-0.127,0.006-0.233-0.084-0.316l-0.26-0.226c-0.084-0.076-0.218-0.084-0.324-0.084H242.6
		c-0.126,0-0.232,0-0.345,0.076l-0.232,0.169c-0.085,0.064-0.141,0.113-0.141,0.31L241.881,354.086L241.881,354.086z"/>
	<path d="M246.951,353.74v1.964c0,0.232-0.049,0.464-0.338,0.464s-0.338-0.231-0.338-0.464v-2.829c0-0.248,0.028-0.499,0.338-0.499
		c0.302,0,0.338,0.251,0.338,0.491v0.077v0.015l0.548-0.358c0.177-0.114,0.367-0.225,0.585-0.225h0.499
		c0.26,0,0.422,0.069,0.627,0.246c0.302,0.26,0.289,0.548,0.302,0.914l0.07,2.125c0.006,0.241-0.028,0.507-0.331,0.507
		c-0.275,0-0.33-0.231-0.338-0.458l-0.07-2.082c-0.014-0.415-0.049-0.576-0.457-0.576h-0.226c-0.07,0-0.141,0.021-0.211,0.063
		L246.951,353.74z"/>
	<path d="M253.195,352.376c0.232,0,0.422,0.126,0.668,0.372l0.112,0.119v-1.422c0-0.232,0.049-0.465,0.338-0.465
		s0.338,0.232,0.338,0.465v4.25c0,0.232-0.049,0.472-0.338,0.472c-0.269,0-0.338-0.224-0.338-0.449v-0.043l-0.147,0.148
		c-0.212,0.197-0.444,0.344-0.648,0.344h-0.654c-0.226,0-0.479-0.154-0.577-0.239l-0.232-0.197c-0.282-0.239-0.373-0.422-0.373-0.78
		v-1.358c0-0.359,0.091-0.542,0.373-0.783l0.232-0.196c0.211-0.184,0.366-0.238,0.648-0.238h0.597V352.376z M252.019,354.683
		c0,0.19,0,0.431,0.106,0.515l0.204,0.162c0.085,0.069,0.169,0.133,0.253,0.133h0.479c0.084,0,0.204-0.057,0.33-0.168l0.387-0.331
		c0.099-0.085,0.197-0.169,0.197-0.296v-0.853c0-0.126-0.098-0.209-0.197-0.295l-0.387-0.33c-0.126-0.113-0.246-0.169-0.33-0.169
		h-0.479c-0.085,0-0.169,0.063-0.253,0.134l-0.204,0.161c-0.106,0.084-0.106,0.323-0.106,0.515V354.683z"/>
	<path d="M257.651,356.167c-0.281,0-0.394,0-0.605-0.183l-0.289-0.253c-0.267-0.239-0.344-0.394-0.344-0.76v-1.302
		c0-0.357,0.049-0.569,0.331-0.808l0.239-0.205c0.317-0.275,0.472-0.281,0.746-0.281h0.619c0.33,0,0.485,0.035,0.746,0.246
		l0.274,0.218c0.309,0.247,0.352,0.507,0.352,0.881v0.541c0,0.386-0.063,0.5-0.464,0.5h-2.168v0.225
		c0,0.063,0.049,0.148,0.099,0.198l0.169,0.183c0.091,0.099,0.226,0.126,0.45,0.126h1.45c0.226,0,0.464,0.05,0.464,0.339
		c0,0.296-0.267,0.337-0.464,0.337h-1.604V356.167z M257.088,354.086h1.956v-0.409c0-0.127,0.007-0.233-0.083-0.316l-0.261-0.226
		c-0.084-0.076-0.218-0.084-0.324-0.084h-0.569c-0.126,0-0.232,0-0.344,0.076l-0.232,0.169c-0.085,0.064-0.141,0.113-0.141,0.31
		v0.48H257.088z"/>
	<path d="M261.482,352.875c0-0.248,0.028-0.499,0.338-0.499c0.267,0,0.337,0.225,0.337,0.45v0.273l0.528-0.436
		c0.19-0.155,0.387-0.288,0.598-0.288h0.542c0.26,0,0.479,0.084,0.662,0.267c0.226,0.225,0.302,0.457,0.302,0.767
		c0,0.232-0.042,0.472-0.33,0.472c-0.247,0-0.344-0.196-0.344-0.415c0-0.114,0-0.197-0.07-0.296
		c-0.085-0.118-0.247-0.118-0.409-0.118h-0.198c-0.126,0-0.218,0.063-0.338,0.161l-0.943,0.782v1.709
		c0,0.232-0.049,0.464-0.337,0.464c-0.289,0-0.338-0.231-0.338-0.464L261.482,352.875L261.482,352.875z"/>
	<path d="M268.557,355.492h0.506c0.226,0,0.465,0.05,0.465,0.339c0,0.295-0.268,0.337-0.465,0.337h-1.717
		c-0.198,0-0.465-0.042-0.465-0.337c0-0.289,0.239-0.339,0.465-0.339h0.535v-3.836h-0.535c-0.198,0-0.465-0.042-0.465-0.338
		c0-0.289,0.239-0.339,0.465-0.339h0.71c0.387,0,0.5,0.07,0.5,0.473L268.557,355.492L268.557,355.492z"/>
	<path d="M272.753,353.051c-0.197,0-0.464-0.043-0.464-0.339c0-0.288,0.239-0.337,0.464-0.337h0.929
		c0.353,0,0.605,0.035,0.873,0.302c0.262,0.259,0.296,0.465,0.303,0.801l0.07,2.295c0.006,0.196-0.092,0.393-0.318,0.393
		c-0.175,0-0.352-0.148-0.344-0.338l-0.465,0.239c-0.189,0.099-0.197,0.099-0.415,0.099h-0.647c-0.303,0-0.521-0.034-0.768-0.239
		c-0.281-0.232-0.353-0.478-0.353-0.831v-0.296c0-0.323,0.077-0.527,0.331-0.752c0.232-0.205,0.493-0.253,0.789-0.253h1.449v-0.155
		c0-0.507-0.111-0.591-0.597-0.591h-0.838V353.051z M272.746,354.471c-0.183,0-0.451,0.05-0.451,0.296v0.45
		c0,0.225,0.275,0.273,0.437,0.273h0.745l0.746-0.386v-0.147c0-0.374-0.105-0.486-0.479-0.486H272.746z"/>
	<path d="M279.32,353.227v-0.387c0-0.232,0.049-0.464,0.338-0.464s0.339,0.231,0.339,0.464v0.274c0,0.169-0.015,0.281-0.085,0.431
		l-1.702,3.707c-0.147,0.316-0.226,0.352-0.535,0.352h-0.521c-0.198,0-0.465-0.042-0.465-0.338c0-0.289,0.239-0.338,0.465-0.338
		h0.463l0.5-1.035h-0.035c-0.281,0-0.295-0.126-0.4-0.359l-0.832-1.836c-0.09-0.205-0.16-0.359-0.16-0.556v-0.303
		c0-0.232,0.049-0.464,0.338-0.464s0.338,0.231,0.338,0.464v0.387l0.908,1.991h0.146L279.32,353.227z"/>
	<path d="M282.997,356.167c-0.281,0-0.394,0-0.605-0.183l-0.288-0.253c-0.268-0.239-0.345-0.394-0.345-0.76v-1.302
		c0-0.357,0.049-0.569,0.331-0.808l0.239-0.205c0.316-0.275,0.472-0.281,0.745-0.281h0.62c0.33,0,0.484,0.035,0.746,0.246
		l0.273,0.218c0.309,0.247,0.352,0.507,0.352,0.881v0.541c0,0.386-0.063,0.5-0.464,0.5h-2.168v0.225
		c0,0.063,0.049,0.148,0.099,0.198l0.169,0.183c0.091,0.099,0.226,0.126,0.45,0.126h1.45c0.225,0,0.464,0.05,0.464,0.339
		c0,0.296-0.268,0.337-0.464,0.337h-1.604V356.167z M282.434,354.086h1.956v-0.409c0-0.127,0.007-0.233-0.084-0.316l-0.261-0.226
		c-0.084-0.076-0.218-0.084-0.323-0.084h-0.569c-0.127,0-0.232,0-0.345,0.076l-0.232,0.169c-0.085,0.064-0.141,0.113-0.141,0.31
		L282.434,354.086L282.434,354.086z"/>
	<path d="M286.827,352.875c0-0.248,0.028-0.499,0.338-0.499c0.268,0,0.338,0.225,0.338,0.45v0.273l0.528-0.436
		c0.189-0.155,0.387-0.288,0.598-0.288h0.542c0.26,0,0.479,0.084,0.661,0.267c0.226,0.225,0.302,0.457,0.302,0.767
		c0,0.232-0.042,0.472-0.33,0.472c-0.246,0-0.345-0.196-0.345-0.415c0-0.114,0-0.197-0.069-0.296
		c-0.085-0.118-0.247-0.118-0.409-0.118h-0.197c-0.126,0-0.218,0.063-0.338,0.161l-0.943,0.782v1.709
		c0,0.232-0.049,0.464-0.338,0.464c-0.288,0-0.338-0.231-0.338-0.464L286.827,352.875L286.827,352.875z"/>
	<path d="M293.051,353.051c-0.141,0-0.381-0.027-0.381,0.19c0,0.112,0.086,0.154,0.184,0.197l1.688,0.767
		c0.436,0.197,0.66,0.473,0.66,0.957c0,0.683-0.464,1.006-1.111,1.006h-1.043c-0.352,0-0.591-0.014-0.844-0.21
		c-0.126-0.099-0.309-0.226-0.309-0.394c0-0.19,0.161-0.339,0.352-0.339c0.105,0,0.183,0.034,0.261,0.119
		c0.12,0.134,0.331,0.147,0.542,0.147h0.915c0.238,0,0.563,0.022,0.563-0.373c0-0.16-0.198-0.267-0.353-0.337l-1.59-0.726
		c-0.373-0.168-0.591-0.387-0.591-0.823c0-0.534,0.423-0.857,0.929-0.857h1.155c0.372,0,0.527,0.02,0.78,0.231
		c0.127,0.105,0.269,0.189,0.269,0.381c0,0.19-0.162,0.338-0.345,0.338c-0.127,0-0.204-0.049-0.289-0.141
		c-0.112-0.12-0.232-0.134-0.415-0.134L293.051,353.051L293.051,353.051z"/>
	<path d="M299.104,351.778c0.31,0.38,0.408,0.634,0.408,1.118v1.068c0,0.493-0.099,0.739-0.408,1.119l-0.696,0.858
		c-0.1,0.119-0.177,0.225-0.345,0.225c-0.19,0-0.339-0.154-0.339-0.351c0-0.12,0.091-0.226,0.161-0.325l0.739-0.977
		c0.184-0.239,0.184-0.254,0.184-0.55v-1.068c0-0.295,0-0.309-0.184-0.55l-0.759-0.998c-0.064-0.086-0.142-0.184-0.142-0.303
		c0-0.176,0.142-0.352,0.325-0.352c0.189,0,0.267,0.113,0.379,0.252L299.104,351.778z"/>
</g>
</svg>
