<?xml version="1.0" encoding="utf-8"?>
<!-- Generator: Adobe Illustrator 16.0.0, SVG Export Plug-In . SVG Version: 6.00 Build 0)  -->
<!DOCTYPE svg PUBLIC "-//W3C//DTD SVG 1.1//EN" "http://www.w3.org/Graphics/SVG/1.1/DTD/svg11.dtd">
<svg version="1.1" id="Layer_1" xmlns="http://www.w3.org/2000/svg" xmlns:xlink="http://www.w3.org/1999/xlink" x="0px" y="0px"
	 width="490px" height="521px" viewBox="0 0 490 521" enable-background="new 0 0 490 521" xml:space="preserve">
<rect x="4" y="33" fill="#E6E6E6" width="185" height="75"/>
<rect x="298" y="33" fill="#E6E6E6" width="186" height="75"/>
<g>
	<path fill="#F15A24" d="M36.092,14.94c0.287,0.187,0.459,0.374,0.474,0.732c0,0.402-0.345,0.79-0.747,0.79
		c-0.244,0-0.445-0.129-0.618-0.244L29.3,12.299c-0.316-0.201-0.531-0.359-0.531-0.775c-0.014-0.402,0.215-0.575,0.531-0.775
		l5.916-3.935c0.172-0.115,0.373-0.215,0.588-0.215c0.417,0,0.747,0.374,0.761,0.775c0,0.374-0.23,0.574-0.502,0.761l-5.112,3.389
		L36.092,14.94z"/>
	<path fill="#F15A24" d="M43.471,11.078c-0.144,0-0.287,0.043-0.431,0.129l-2.039,1.278v4.006c0,0.474-0.101,0.948-0.689,0.948
		c-0.588,0-0.689-0.474-0.689-0.948V7.804c0-0.474,0.101-0.947,0.689-0.947c0.589,0,0.689,0.474,0.689,0.947v3.087l1.12-0.732
		C42.48,9.93,42.896,9.7,43.356,9.7h0.919c0.273,0,0.761,0,1.335,0.502c0.618,0.531,0.589,1.12,0.618,1.867l0.144,4.336
		c0.014,0.488-0.058,1.034-0.675,1.034c-0.56,0-0.675-0.474-0.689-0.933l-0.144-4.25c-0.029-0.66,0.014-1.177-0.761-1.177H43.471z"
		/>
	<path fill="#F15A24" d="M52.73,14.84c0,0.775-0.029,1.221,0.919,1.221h0.704c0.56,0,0.818-0.043,0.962-0.603
		c0.086-0.33,0.345-0.56,0.689-0.56c0.388,0,0.704,0.302,0.704,0.689s-0.244,0.875-0.474,1.148
		c-0.502,0.603-1.163,0.704-1.895,0.704h-0.704c-0.689,0-1.292-0.158-1.781-0.689c-0.531-0.589-0.502-1.178-0.502-1.924v-3.748
		h-0.445c-0.402,0-0.948-0.086-0.948-0.689c0-0.589,0.488-0.689,0.948-0.689h0.445V8.292c0-0.474,0.101-0.948,0.689-0.948
		c0.588,0,0.689,0.474,0.689,0.948V9.7h2.312c0.459,0,0.947,0.101,0.947,0.689c0,0.603-0.545,0.689-0.947,0.689H52.73V14.84z"/>
	<path fill="#F15A24" d="M64.36,12.011v4.48c0,0.474-0.101,0.948-0.689,0.948c-0.588,0-0.689-0.474-0.689-0.948v-4.609
		c0-0.23,0.029-0.661-0.331-0.661c-0.158,0-0.258,0.129-0.373,0.23l-0.603,0.56v4.48c0,0.474-0.101,0.948-0.689,0.948
		c-0.588,0-0.689-0.474-0.689-0.948v-5.815c0-0.488,0.129-0.977,0.718-0.977c0.345,0,0.574,0.23,0.661,0.545l0.115-0.086
		C62.148,9.886,62.364,9.7,62.838,9.7c0.531,0,0.947,0.258,1.263,0.689l0.115-0.115C64.647,9.843,64.819,9.7,65.422,9.7
		c0.459,0,0.876,0.201,1.148,0.56c0.345,0.445,0.316,0.847,0.331,1.378l0.144,4.767c0.014,0.488-0.058,1.034-0.675,1.034
		c-0.56,0-0.675-0.474-0.689-0.933l-0.144-4.552c-0.014-0.244,0.058-0.732-0.316-0.732c-0.201,0-0.459,0.345-0.574,0.474
		L64.36,12.011z"/>
	<path fill="#F15A24" d="M74.726,16.061h1.034c0.459,0,0.948,0.101,0.948,0.689c0,0.603-0.546,0.689-0.948,0.689h-3.503
		c-0.402,0-0.948-0.086-0.948-0.689c0-0.589,0.488-0.689,0.948-0.689h1.091V8.235h-1.091c-0.402,0-0.948-0.086-0.948-0.689
		c0-0.589,0.488-0.689,0.948-0.689h1.45c0.79,0,1.02,0.144,1.02,0.962V16.061z"/>
	<path fill="#F15A24" d="M86.067,11.523l-5.112-3.389c-0.272-0.187-0.502-0.388-0.502-0.761c0.015-0.402,0.345-0.775,0.761-0.775
		c0.215,0,0.416,0.101,0.588,0.215l5.916,3.935c0.316,0.201,0.545,0.373,0.531,0.775c0,0.416-0.215,0.574-0.531,0.775l-5.901,3.919
		c-0.172,0.115-0.374,0.244-0.618,0.244c-0.402,0-0.747-0.388-0.747-0.79c0.015-0.359,0.187-0.545,0.474-0.732L86.067,11.523z"/>
	<path fill="#F15A24" d="M98.112,14.94c0.287,0.187,0.459,0.374,0.474,0.732c0,0.402-0.345,0.79-0.747,0.79
		c-0.244,0-0.445-0.129-0.618-0.244l-5.901-3.919c-0.316-0.201-0.531-0.359-0.531-0.775c-0.014-0.402,0.215-0.575,0.531-0.775
		l5.916-3.935c0.172-0.115,0.373-0.215,0.588-0.215c0.417,0,0.747,0.374,0.761,0.775c0,0.374-0.23,0.574-0.502,0.761l-5.112,3.389
		L98.112,14.94z"/>
	<path fill="#F15A24" d="M102.893,16.937c-0.172,0.301-0.345,0.502-0.704,0.502s-0.718-0.302-0.718-0.675
		c0-0.273,0.172-0.517,0.316-0.747l5.37-9.204c0.172-0.287,0.345-0.545,0.704-0.545c0.373,0,0.704,0.301,0.704,0.675
		c0,0.23-0.072,0.402-0.158,0.56L102.893,16.937z"/>
	<path fill="#F15A24" d="M115.828,11.078c-0.144,0-0.287,0.043-0.431,0.129l-2.039,1.278v4.006c0,0.474-0.101,0.948-0.689,0.948
		c-0.588,0-0.689-0.474-0.689-0.948V7.804c0-0.474,0.101-0.947,0.689-0.947c0.589,0,0.689,0.474,0.689,0.947v3.087l1.12-0.732
		c0.359-0.229,0.775-0.459,1.235-0.459h0.919c0.273,0,0.761,0,1.335,0.502c0.618,0.531,0.589,1.12,0.618,1.867l0.144,4.336
		c0.014,0.488-0.058,1.034-0.675,1.034c-0.56,0-0.675-0.474-0.689-0.933l-0.144-4.25c-0.029-0.66,0.014-1.177-0.761-1.177H115.828z"
		/>
	<path fill="#F15A24" d="M125.088,14.84c0,0.775-0.029,1.221,0.919,1.221h0.704c0.56,0,0.818-0.043,0.962-0.603
		c0.086-0.33,0.345-0.56,0.689-0.56c0.388,0,0.704,0.302,0.704,0.689s-0.244,0.875-0.474,1.148
		c-0.502,0.603-1.163,0.704-1.895,0.704h-0.704c-0.689,0-1.292-0.158-1.781-0.689c-0.531-0.589-0.502-1.178-0.502-1.924v-3.748
		h-0.445c-0.402,0-0.948-0.086-0.948-0.689c0-0.589,0.488-0.689,0.948-0.689h0.445V8.292c0-0.474,0.101-0.948,0.689-0.948
		c0.588,0,0.689,0.474,0.689,0.948V9.7h2.312c0.459,0,0.947,0.101,0.947,0.689c0,0.603-0.545,0.689-0.947,0.689h-2.312V14.84z"/>
	<path fill="#F15A24" d="M136.717,12.011v4.48c0,0.474-0.101,0.948-0.689,0.948c-0.588,0-0.689-0.474-0.689-0.948v-4.609
		c0-0.23,0.029-0.661-0.331-0.661c-0.158,0-0.258,0.129-0.373,0.23l-0.603,0.56v4.48c0,0.474-0.101,0.948-0.689,0.948
		c-0.588,0-0.689-0.474-0.689-0.948v-5.815c0-0.488,0.129-0.977,0.718-0.977c0.345,0,0.574,0.23,0.661,0.545l0.115-0.086
		c0.359-0.273,0.574-0.459,1.048-0.459c0.531,0,0.947,0.258,1.263,0.689l0.115-0.115c0.431-0.431,0.603-0.574,1.206-0.574
		c0.459,0,0.876,0.201,1.148,0.56c0.345,0.445,0.316,0.847,0.331,1.378l0.144,4.767c0.014,0.488-0.058,1.034-0.675,1.034
		c-0.56,0-0.675-0.474-0.689-0.933l-0.144-4.552c-0.014-0.244,0.058-0.732-0.316-0.732c-0.201,0-0.459,0.345-0.574,0.474
		L136.717,12.011z"/>
	<path fill="#F15A24" d="M147.083,16.061h1.034c0.459,0,0.948,0.101,0.948,0.689c0,0.603-0.546,0.689-0.948,0.689h-3.503
		c-0.402,0-0.948-0.086-0.948-0.689c0-0.589,0.488-0.689,0.948-0.689h1.091V8.235h-1.091c-0.402,0-0.948-0.086-0.948-0.689
		c0-0.589,0.488-0.689,0.948-0.689h1.45c0.79,0,1.02,0.144,1.02,0.962V16.061z"/>
	<path fill="#F15A24" d="M158.424,11.523l-5.112-3.389c-0.272-0.187-0.502-0.388-0.502-0.761c0.015-0.402,0.345-0.775,0.761-0.775
		c0.215,0,0.416,0.101,0.588,0.215l5.916,3.935c0.316,0.201,0.545,0.373,0.531,0.775c0,0.416-0.215,0.574-0.531,0.775l-5.901,3.919
		c-0.172,0.115-0.374,0.244-0.618,0.244c-0.402,0-0.747-0.388-0.747-0.79c0.015-0.359,0.187-0.545,0.474-0.732L158.424,11.523z"/>
</g>
<g>
	<path fill="#D4145A" d="M51.189,187.625c0.288,0.374,0.503,0.704,0.503,1.192c0,1.077-0.819,1.623-1.81,1.623h-3.159
		c-0.545,0-1.02-0.101-1.45-0.459c-0.388-0.316-0.675-0.833-0.675-1.335c0-0.459,0.258-0.861,0.761-0.861
		c0.417,0,0.675,0.345,0.675,0.732c0,0.431,0.229,0.488,0.631,0.488h3.116c0.115,0,0.474,0.043,0.474-0.172
		c0-0.115-0.201-0.331-0.258-0.417l-4.925-6.332c-0.301-0.388-0.474-0.675-0.474-1.178c0-0.574,0.273-1.063,0.761-1.378
		c0.402-0.258,0.732-0.258,1.192-0.258h3.044c0.546,0,1.005,0.115,1.421,0.474c0.374,0.331,0.675,0.862,0.675,1.364
		c0,0.459-0.23,0.833-0.747,0.833c-0.431,0-0.689-0.272-0.689-0.675c0-0.488-0.244-0.56-0.689-0.56h-3.044
		c-0.158,0-0.488-0.043-0.488,0.201c0,0.129,0.158,0.302,0.215,0.388L51.189,187.625z"/>
	<path fill="#D4145A" d="M55.108,185.27c0-0.919,0.187-1.235,0.876-1.795c0.675-0.56,0.991-0.775,1.953-0.775h1.091
		c0.962,0,1.278,0.215,1.953,0.775c0.689,0.56,0.876,0.876,0.876,1.795v2.599c0,0.905-0.23,1.25-0.948,1.853
		s-1.005,0.718-1.881,0.718h-1.091c-0.876,0-1.163-0.115-1.881-0.718c-0.718-0.603-0.948-0.948-0.948-1.853V185.27z M56.486,187.869
		c0,0.287,0.101,0.474,0.502,0.818c0.302,0.259,0.517,0.374,0.948,0.374h1.091c0.431,0,0.646-0.115,0.948-0.374
		c0.402-0.344,0.502-0.531,0.502-0.818v-2.599c0-0.287-0.101-0.474-0.502-0.818c-0.302-0.259-0.517-0.374-0.948-0.374h-1.091
		c-0.431,0-0.646,0.115-0.948,0.374c-0.402,0.344-0.502,0.531-0.502,0.818V187.869z"/>
	<path fill="#D4145A" d="M69.508,185.011v4.48c0,0.474-0.101,0.948-0.689,0.948c-0.588,0-0.689-0.474-0.689-0.948v-4.609
		c0-0.23,0.029-0.661-0.331-0.661c-0.158,0-0.258,0.129-0.373,0.23l-0.603,0.56v4.48c0,0.474-0.101,0.948-0.689,0.948
		c-0.588,0-0.689-0.474-0.689-0.948v-5.815c0-0.488,0.129-0.977,0.718-0.977c0.345,0,0.574,0.23,0.661,0.545l0.115-0.086
		c0.359-0.273,0.574-0.459,1.048-0.459c0.531,0,0.948,0.258,1.263,0.689l0.115-0.115c0.431-0.431,0.603-0.574,1.206-0.574
		c0.459,0,0.876,0.201,1.148,0.56c0.345,0.445,0.316,0.847,0.331,1.378l0.144,4.767c0.014,0.488-0.058,1.034-0.675,1.034
		c-0.56,0-0.675-0.474-0.689-0.933l-0.144-4.552c-0.014-0.244,0.058-0.732-0.316-0.732c-0.201,0-0.459,0.345-0.574,0.474
		L69.508,185.011z"/>
	<path fill="#D4145A" d="M78.308,190.439c-0.574,0-0.804,0-1.235-0.374l-0.588-0.517c-0.546-0.488-0.704-0.804-0.704-1.551v-2.656
		c0-0.732,0.101-1.163,0.675-1.651l0.488-0.417c0.646-0.56,0.962-0.574,1.522-0.574h1.263c0.675,0,0.991,0.072,1.522,0.502
		l0.56,0.445c0.632,0.502,0.718,1.034,0.718,1.795v1.105c0,0.79-0.129,1.02-0.948,1.02H77.16v0.459c0,0.129,0.101,0.301,0.201,0.402
		l0.345,0.374c0.187,0.201,0.459,0.258,0.919,0.258h2.958c0.459,0,0.948,0.101,0.948,0.689c0,0.603-0.546,0.689-0.948,0.689H78.308z
		 M77.16,186.189h3.992v-0.833c0-0.258,0.014-0.474-0.172-0.646l-0.531-0.459c-0.172-0.158-0.445-0.172-0.661-0.172h-1.163
		c-0.258,0-0.474,0-0.704,0.158l-0.474,0.344c-0.172,0.129-0.287,0.23-0.287,0.632V186.189z"/>
	<path fill="#D4145A" d="M88.889,187.84c0,0.775-0.029,1.221,0.919,1.221h0.704c0.56,0,0.818-0.043,0.962-0.603
		c0.086-0.33,0.345-0.56,0.689-0.56c0.388,0,0.704,0.302,0.704,0.689s-0.244,0.875-0.474,1.148
		c-0.502,0.603-1.163,0.704-1.895,0.704h-0.704c-0.689,0-1.292-0.158-1.781-0.689c-0.531-0.589-0.502-1.178-0.502-1.924v-3.748
		h-0.445c-0.402,0-0.948-0.086-0.948-0.689c0-0.589,0.488-0.689,0.948-0.689h0.445v-1.407c0-0.474,0.101-0.948,0.689-0.948
		c0.588,0,0.689,0.474,0.689,0.948v1.407h2.312c0.459,0,0.947,0.101,0.947,0.689c0,0.603-0.545,0.689-0.947,0.689h-2.312V187.84z"/>
	<path fill="#D4145A" d="M100.303,184.078c-0.144,0-0.287,0.043-0.431,0.129l-2.039,1.278v4.006c0,0.474-0.101,0.948-0.689,0.948
		c-0.588,0-0.689-0.474-0.689-0.948v-8.687c0-0.474,0.101-0.947,0.689-0.947c0.589,0,0.689,0.474,0.689,0.947v3.087l1.12-0.732
		c0.359-0.229,0.775-0.459,1.235-0.459h0.919c0.273,0,0.761,0,1.335,0.502c0.618,0.531,0.589,1.12,0.618,1.867l0.144,4.336
		c0.014,0.488-0.058,1.034-0.675,1.034c-0.56,0-0.675-0.474-0.689-0.933l-0.144-4.25c-0.029-0.66,0.014-1.177-0.761-1.177H100.303z"
		/>
	<path fill="#D4145A" d="M110.884,189.061h1.034c0.459,0,0.948,0.101,0.948,0.689c0,0.603-0.546,0.689-0.948,0.689h-3.503
		c-0.402,0-0.948-0.086-0.948-0.689c0-0.589,0.488-0.689,0.948-0.689h1.091v-4.982h-1.091c-0.402,0-0.948-0.086-0.948-0.689
		c0-0.589,0.488-0.689,0.948-0.689h1.45c0.79,0,1.02,0.144,1.02,0.962V189.061z M108.802,179.914c0-0.488,0.272-0.646,0.646-0.646
		h0.79c0.374,0,0.646,0.158,0.646,0.646v0.661c0,0.488-0.273,0.646-0.646,0.646h-0.79c-0.374,0-0.646-0.158-0.646-0.646V179.914z"/>
	<path fill="#D4145A" d="M118.507,185.485v4.006c0,0.474-0.101,0.948-0.689,0.948c-0.588,0-0.689-0.474-0.689-0.948v-5.772
		c0-0.502,0.057-1.02,0.689-1.02c0.618,0,0.689,0.517,0.689,1.005v0.158v0.029l1.12-0.732c0.359-0.229,0.747-0.459,1.192-0.459h1.02
		c0.531,0,0.861,0.144,1.278,0.502c0.618,0.531,0.589,1.12,0.618,1.867l0.144,4.336c0.014,0.488-0.058,1.034-0.675,1.034
		c-0.56,0-0.675-0.474-0.689-0.933l-0.144-4.25c-0.029-0.847-0.101-1.177-0.933-1.177h-0.459c-0.144,0-0.287,0.043-0.431,0.129
		L118.507,185.485z"/>
	<path fill="#D4145A" d="M127.465,185.27c0-0.646,0.187-1.221,0.474-1.45l1.005-0.79c0.287-0.229,0.502-0.33,0.861-0.33h1.335
		c0.373,0,0.818,0.273,1.35,0.689l0.345,0.272v-0.158c0-0.431,0.229-0.804,0.704-0.804c0.603,0,0.675,0.502,0.675,0.962v6.734
		c0,1.249-0.101,1.507-0.675,1.996l-0.459,0.388c-0.603,0.502-0.948,0.589-1.723,0.589h-2.283c-0.402,0-0.948-0.086-0.948-0.689
		c0-0.588,0.488-0.689,0.948-0.689h2.527c0.287,0,0.474-0.129,0.689-0.316l0.345-0.316c0.115-0.115,0.201-0.316,0.201-0.574v-1.896
		l-0.287,0.287c-0.316,0.316-0.747,0.675-1.135,0.675h-1.622c-0.288,0-0.618-0.043-1.034-0.416l-0.861-0.775
		c-0.402-0.374-0.431-0.732-0.431-1.292V185.27z M128.843,187.165c0,0.287,0.014,0.589,0.172,0.718l0.574,0.459
		c0.101,0.086,0.229,0.129,0.402,0.129h1.005c0.172,0,0.373-0.144,0.632-0.359l1.063-0.876c0.101-0.086,0.144-0.272,0.144-0.459
		v-1.005c0-0.187-0.043-0.374-0.144-0.459l-1.063-0.876c-0.259-0.215-0.459-0.359-0.632-0.359h-1.005
		c-0.172,0-0.301,0.043-0.402,0.129l-0.574,0.459c-0.158,0.129-0.172,0.431-0.172,0.718V187.165z"/>
	<path fill="#D4145A" d="M58.797,207.667c-1.077,0-1.694-0.431-2.154-1.364l-1.321-2.67c-0.244-0.488-0.388-0.948-0.388-1.508
		c0-0.632,0.115-1.02,0.402-1.594l1.321-2.656c0.488-0.991,1.105-1.378,2.211-1.378h2.441c0.316,0,0.718,0.172,0.718,0.718
		c0,0.517-0.388,0.718-0.718,0.718h-2.398c-0.617,0-0.718,0.057-0.991,0.603l-1.249,2.498c-0.187,0.388-0.301,0.646-0.301,1.091
		c0,0.402,0.129,0.646,0.301,0.991l1.221,2.484c0.287,0.588,0.431,0.631,1.077,0.631h2.34c0.316,0,0.718,0.172,0.718,0.718
		c0,0.517-0.388,0.718-0.718,0.718H58.797z"/>
	<path fill="#D4145A" d="M69.292,201.306c-0.144,0-0.287,0.043-0.431,0.129l-2.039,1.278v4.006c0,0.474-0.101,0.948-0.689,0.948
		c-0.588,0-0.689-0.474-0.689-0.948v-8.687c0-0.474,0.101-0.947,0.689-0.947c0.589,0,0.689,0.474,0.689,0.947v3.087l1.12-0.732
		c0.359-0.229,0.775-0.459,1.235-0.459h0.919c0.273,0,0.761,0,1.335,0.502c0.618,0.531,0.589,1.12,0.618,1.867l0.144,4.336
		c0.014,0.488-0.058,1.034-0.675,1.034c-0.56,0-0.675-0.474-0.689-0.933l-0.144-4.25c-0.029-0.66,0.014-1.177-0.761-1.177H69.292z"
		/>
	<path fill="#D4145A" d="M78.092,201.306c-0.402,0-0.948-0.086-0.948-0.689c0-0.589,0.488-0.689,0.948-0.689h1.896
		c0.718,0,1.235,0.072,1.78,0.617c0.531,0.532,0.603,0.948,0.618,1.637l0.144,4.681c0.014,0.402-0.187,0.804-0.646,0.804
		c-0.359,0-0.718-0.302-0.703-0.689l-0.948,0.488c-0.388,0.201-0.402,0.201-0.847,0.201h-1.321c-0.617,0-1.063-0.072-1.565-0.488
		c-0.574-0.474-0.718-0.976-0.718-1.694v-0.603c0-0.661,0.158-1.077,0.675-1.536c0.474-0.417,1.005-0.517,1.608-0.517h2.958v-0.316
		c0-1.034-0.229-1.206-1.22-1.206H78.092z M78.078,204.207c-0.374,0-0.919,0.101-0.919,0.603v0.919c0,0.459,0.56,0.56,0.89,0.56
		h1.522l1.522-0.79v-0.302c0-0.761-0.215-0.991-0.977-0.991H78.078z"/>
	<path fill="#D4145A" d="M87.496,202.713v4.006c0,0.474-0.101,0.948-0.689,0.948c-0.588,0-0.689-0.474-0.689-0.948v-5.772
		c0-0.502,0.057-1.02,0.689-1.02c0.618,0,0.689,0.517,0.689,1.005v0.158v0.029l1.12-0.732c0.359-0.229,0.747-0.459,1.192-0.459h1.02
		c0.531,0,0.861,0.144,1.278,0.502c0.618,0.531,0.589,1.12,0.618,1.867l0.144,4.336c0.014,0.488-0.058,1.034-0.675,1.034
		c-0.56,0-0.675-0.474-0.689-0.933l-0.144-4.25c-0.029-0.847-0.101-1.177-0.933-1.177h-0.459c-0.144,0-0.287,0.043-0.431,0.129
		L87.496,202.713z"/>
	<path fill="#D4145A" d="M96.455,202.498c0-0.646,0.187-1.221,0.474-1.45l1.005-0.79c0.287-0.229,0.502-0.33,0.861-0.33h1.335
		c0.373,0,0.818,0.273,1.35,0.689l0.345,0.272v-0.158c0-0.431,0.229-0.804,0.704-0.804c0.603,0,0.675,0.502,0.675,0.962v6.734
		c0,1.249-0.101,1.507-0.675,1.996l-0.459,0.388c-0.603,0.502-0.948,0.589-1.723,0.589h-2.283c-0.402,0-0.948-0.086-0.948-0.689
		c0-0.588,0.488-0.689,0.948-0.689h2.527c0.287,0,0.474-0.129,0.689-0.316l0.345-0.316c0.115-0.115,0.201-0.316,0.201-0.574v-1.896
		l-0.287,0.287c-0.316,0.316-0.747,0.675-1.134,0.675h-1.623c-0.288,0-0.618-0.043-1.034-0.416l-0.861-0.775
		c-0.402-0.374-0.431-0.732-0.431-1.292V202.498z M97.833,204.393c0,0.288,0.014,0.589,0.172,0.718l0.574,0.459
		c0.101,0.086,0.229,0.129,0.402,0.129h1.005c0.172,0,0.373-0.144,0.632-0.359l1.063-0.876c0.1-0.086,0.144-0.272,0.144-0.459V203
		c0-0.187-0.043-0.374-0.144-0.459l-1.063-0.876c-0.259-0.215-0.459-0.359-0.632-0.359h-1.005c-0.172,0-0.301,0.043-0.402,0.129
		l-0.574,0.459c-0.158,0.129-0.172,0.431-0.172,0.718V204.393z"/>
	<path fill="#D4145A" d="M109.318,207.667c-0.574,0-0.804,0-1.235-0.374l-0.588-0.517c-0.546-0.488-0.704-0.804-0.704-1.551v-2.656
		c0-0.732,0.101-1.163,0.675-1.651l0.488-0.417c0.646-0.56,0.962-0.574,1.522-0.574h1.263c0.675,0,0.991,0.072,1.522,0.502
		l0.56,0.445c0.632,0.502,0.718,1.034,0.718,1.795v1.105c0,0.79-0.129,1.02-0.948,1.02h-4.422v0.459
		c0,0.129,0.101,0.301,0.201,0.402l0.345,0.374c0.187,0.201,0.459,0.258,0.919,0.258h2.958c0.459,0,0.948,0.101,0.948,0.689
		c0,0.604-0.546,0.689-0.948,0.689H109.318z M108.169,203.417h3.992v-0.833c0-0.258,0.014-0.474-0.172-0.646l-0.531-0.459
		c-0.172-0.158-0.445-0.172-0.661-0.172h-1.163c-0.258,0-0.474,0-0.704,0.158l-0.474,0.345c-0.172,0.129-0.287,0.23-0.287,0.632
		V203.417z"/>
	<path fill="#D4145A" d="M120.904,199.928c0.474,0,0.861,0.258,1.364,0.761l0.23,0.244v-2.9c0-0.474,0.101-0.947,0.689-0.947
		c0.589,0,0.689,0.474,0.689,0.947v8.673c0,0.474-0.101,0.962-0.689,0.962c-0.545,0-0.689-0.459-0.689-0.919v-0.086l-0.302,0.301
		c-0.431,0.402-0.904,0.704-1.321,0.704h-1.335c-0.459,0-0.977-0.316-1.177-0.488l-0.474-0.402
		c-0.574-0.488-0.761-0.862-0.761-1.594v-2.771c0-0.732,0.187-1.105,0.761-1.594l0.474-0.402c0.431-0.374,0.747-0.488,1.321-0.488
		H120.904z M118.506,204.637c0,0.388,0,0.876,0.215,1.048l0.417,0.33c0.172,0.144,0.344,0.273,0.517,0.273h0.977
		c0.172,0,0.417-0.115,0.675-0.345l0.79-0.675c0.201-0.172,0.402-0.345,0.402-0.603v-1.737c0-0.258-0.201-0.431-0.402-0.603
		l-0.79-0.675c-0.258-0.23-0.502-0.345-0.675-0.345h-0.977c-0.172,0-0.344,0.129-0.517,0.273l-0.417,0.33
		c-0.215,0.172-0.215,0.661-0.215,1.048V204.637z"/>
</g>
<g>
	<path fill="#00A99D" d="M360.491,14.405c-0.316,0-0.546,0-0.747-0.273c-0.158-0.215-0.158-0.373-0.158-0.646v-0.804
		c0-0.272,0-0.431,0.158-0.646c0.201-0.273,0.431-0.273,0.747-0.273h1.034c0.316,0,0.545,0,0.747,0.273
		c0.158,0.215,0.158,0.374,0.158,0.646v0.804c0,0.273,0,0.431-0.158,0.646c-0.201,0.273-0.431,0.273-0.747,0.273H360.491z"/>
	<path fill="#00A99D" d="M367.971,11.706c0-0.847,0.158-1.264,0.818-1.81l1.02-0.847c0.646-0.531,0.976-0.545,1.78-0.545h2.183
		c0.459,0,0.948,0.101,0.948,0.689c0,0.603-0.546,0.689-0.948,0.689h-2.427c-0.272,0-0.545,0.144-0.79,0.345l-0.833,0.704
		c-0.215,0.172-0.373,0.316-0.373,0.588v1.709c0,0.272,0.158,0.416,0.373,0.588l0.833,0.704c0.244,0.201,0.517,0.345,0.79,0.345
		h2.427c0.402,0,0.948,0.086,0.948,0.689c0,0.588-0.488,0.689-0.948,0.689h-2.183c-0.804,0-1.134-0.014-1.78-0.545l-1.02-0.847
		c-0.661-0.546-0.818-0.962-0.818-1.81V11.706z"/>
	<path fill="#00A99D" d="M380.662,9.882c-0.287,0-0.775-0.058-0.775,0.388c0,0.229,0.172,0.316,0.374,0.402l3.446,1.565
		c0.89,0.402,1.35,0.962,1.35,1.953c0,1.393-0.948,2.053-2.269,2.053h-2.125c-0.718,0-1.206-0.029-1.723-0.431
		c-0.259-0.201-0.632-0.459-0.632-0.804c0-0.388,0.33-0.689,0.718-0.689c0.215,0,0.374,0.072,0.531,0.244
		c0.244,0.273,0.675,0.302,1.105,0.302h1.867c0.488,0,1.149,0.043,1.149-0.761c0-0.33-0.402-0.545-0.718-0.689l-3.245-1.479
		c-0.761-0.345-1.207-0.79-1.207-1.68c0-1.091,0.862-1.752,1.896-1.752h2.355c0.761,0,1.077,0.043,1.594,0.474
		c0.258,0.216,0.545,0.388,0.545,0.775s-0.33,0.689-0.704,0.689c-0.258,0-0.416-0.101-0.588-0.287
		c-0.23-0.244-0.474-0.273-0.847-0.273H380.662z"/>
	<path fill="#00A99D" d="M390.999,9.882c-0.287,0-0.775-0.058-0.775,0.388c0,0.229,0.172,0.316,0.374,0.402l3.446,1.565
		c0.89,0.402,1.35,0.962,1.35,1.953c0,1.393-0.948,2.053-2.269,2.053h-2.125c-0.718,0-1.206-0.029-1.723-0.431
		c-0.259-0.201-0.632-0.459-0.632-0.804c0-0.388,0.33-0.689,0.718-0.689c0.215,0,0.374,0.072,0.531,0.244
		c0.244,0.273,0.675,0.302,1.105,0.302h1.867c0.488,0,1.148,0.043,1.148-0.761c0-0.33-0.402-0.545-0.718-0.689l-3.245-1.479
		c-0.761-0.345-1.207-0.79-1.207-1.68c0-1.091,0.862-1.752,1.896-1.752h2.355c0.761,0,1.077,0.043,1.593,0.474
		c0.259,0.216,0.546,0.388,0.546,0.775s-0.33,0.689-0.703,0.689c-0.259,0-0.417-0.101-0.589-0.287
		c-0.23-0.244-0.474-0.273-0.847-0.273H390.999z"/>
	<path fill="#00A99D" d="M405.184,14.807c0.373,0,0.718,0.201,0.718,0.718c0,0.517-0.345,0.718-0.718,0.718h-1.953
		c-0.531,0-0.919-0.101-1.278-0.531c-0.301-0.359-0.315-0.632-0.315-1.077v-2.269c0-0.747-0.187-0.991-0.947-0.991h-1.163
		c-0.374,0-0.719-0.201-0.719-0.718s0.345-0.718,0.719-0.718h1.163c0.761,0,0.947-0.244,0.947-0.991V6.68
		c0-0.445,0.015-0.718,0.315-1.077c0.359-0.431,0.747-0.531,1.278-0.531h1.953c0.373,0,0.718,0.201,0.718,0.718
		c0,0.517-0.345,0.718-0.718,0.718h-2.111v2.57c0,0.618-0.129,1.134-0.574,1.58c0.431,0.474,0.574,0.991,0.574,1.594v2.556H405.184z
		"/>
	<path fill="#00A99D" d="M411.974,14.807v-2.556c0-0.603,0.144-1.12,0.574-1.594c-0.445-0.445-0.574-0.962-0.574-1.58v-2.57h-2.11
		c-0.374,0-0.719-0.201-0.719-0.718c0-0.517,0.345-0.718,0.719-0.718h1.952c0.531,0,0.919,0.101,1.278,0.531
		c0.302,0.359,0.315,0.632,0.315,1.077v2.269c0,0.747,0.187,0.991,0.948,0.991h1.163c0.373,0,0.718,0.201,0.718,0.718
		s-0.345,0.718-0.718,0.718h-1.163c-0.762,0-0.948,0.244-0.948,0.991v2.269c0,0.445-0.014,0.718-0.315,1.077
		c-0.359,0.431-0.747,0.531-1.278,0.531h-1.952c-0.374,0-0.719-0.201-0.719-0.718c0-0.517,0.345-0.718,0.719-0.718H411.974z"/>
</g>
<polyline fill="none" stroke="#E6E6E6" stroke-width="6" stroke-miterlimit="10" points="94,108 94,152 387,152 387,108 "/>
<g>
	<path d="M76.801,68.227H76.27c-0.474,0-0.876-0.172-0.876-0.718c0-0.517,0.388-0.718,0.833-0.718h2.398
		c1.12,0,1.68,0.459,2.168,1.436l1.263,2.527c0.288,0.589,0.431,1.005,0.431,1.666c0,0.574-0.158,1.063-0.417,1.58l-1.307,2.613
		c-0.502,1.02-1.149,1.35-2.269,1.35h-2.384c-0.373,0-0.718-0.201-0.718-0.718c0-0.517,0.345-0.718,0.718-0.718h0.689V68.227z
		 M78.237,76.526h0.273c0.603,0,0.747-0.072,1.005-0.603l1.264-2.556c0.158-0.33,0.273-0.574,0.273-0.933
		c0-0.488-0.158-0.761-0.359-1.178L79.5,68.83c-0.301-0.618-0.431-0.603-1.091-0.603h-0.172V76.526z"/>
	<path d="M92.451,70.826c0.273,0.56,0.374,0.977,0.374,1.594c0,0.689-0.187,1.12-0.474,1.709l-1.321,2.642
		c-0.345,0.689-0.919,1.192-1.752,1.192c-0.833,0-1.407-0.502-1.751-1.192l-1.321-2.642c-0.287-0.589-0.474-1.02-0.474-1.709
		c0-0.617,0.101-1.034,0.373-1.594l1.436-2.857c0.345-0.675,0.934-1.177,1.737-1.177c0.804,0,1.393,0.502,1.737,1.177L92.451,70.826
		z M89.766,68.658c-0.115-0.23-0.187-0.431-0.488-0.431c-0.301,0-0.373,0.201-0.488,0.431l-1.292,2.599
		c-0.215,0.417-0.33,0.689-0.33,1.163c0,0.374,0.086,0.632,0.244,0.948l1.378,2.728c0.101,0.201,0.201,0.431,0.488,0.431
		s0.388-0.229,0.488-0.431l1.378-2.728c0.158-0.316,0.244-0.574,0.244-0.948c0-0.474-0.115-0.747-0.33-1.163L89.766,68.658z"/>
	<path d="M101.366,66.791h1.795v10.453c0,0.459-0.201,0.718-0.718,0.718c-0.517,0-0.718-0.258-0.718-0.718v-8.472h-0.029
		l-1.364,2.024v0.23c0,0.445-0.172,0.861-0.718,0.861c-0.517,0-0.718-0.417-0.718-0.861v-0.23l-1.364-2.024h-0.028v8.472
		c0,0.459-0.201,0.718-0.718,0.718c-0.517,0-0.718-0.258-0.718-0.718V66.791h1.795l1.751,2.527L101.366,66.791z"/>
</g>
<g>
	<path d="M369.034,77.962c-1.077,0-1.694-0.431-2.154-1.364l-1.321-2.67c-0.244-0.488-0.388-0.948-0.388-1.508
		c0-0.632,0.115-1.02,0.402-1.594l1.321-2.656c0.488-0.991,1.105-1.378,2.211-1.378h2.441c0.316,0,0.718,0.172,0.718,0.718
		c0,0.517-0.388,0.718-0.718,0.718h-2.398c-0.617,0-0.718,0.057-0.991,0.603l-1.249,2.498c-0.187,0.388-0.301,0.646-0.301,1.091
		c0,0.402,0.129,0.646,0.301,0.991l1.221,2.484c0.287,0.588,0.431,0.631,1.077,0.631h2.34c0.316,0,0.718,0.172,0.718,0.718
		c0,0.517-0.388,0.718-0.718,0.718H369.034z"/>
	<path d="M382.099,75.147c0.288,0.374,0.503,0.704,0.503,1.192c0,1.077-0.819,1.623-1.81,1.623h-3.159
		c-0.545,0-1.02-0.101-1.45-0.459c-0.388-0.316-0.675-0.833-0.675-1.335c0-0.459,0.258-0.861,0.761-0.861
		c0.417,0,0.675,0.345,0.675,0.732c0,0.431,0.229,0.488,0.631,0.488h3.116c0.115,0,0.474,0.043,0.474-0.172
		c0-0.115-0.201-0.33-0.258-0.416l-4.925-6.332c-0.301-0.388-0.474-0.675-0.474-1.178c0-0.574,0.273-1.063,0.761-1.378
		c0.402-0.258,0.732-0.258,1.192-0.258h3.044c0.546,0,1.005,0.115,1.421,0.474c0.374,0.331,0.675,0.862,0.675,1.364
		c0,0.459-0.23,0.833-0.747,0.833c-0.431,0-0.689-0.273-0.689-0.675c0-0.488-0.244-0.56-0.689-0.56h-3.044
		c-0.158,0-0.488-0.043-0.488,0.201c0,0.129,0.158,0.302,0.215,0.388L382.099,75.147z"/>
	<path d="M392.436,75.147c0.287,0.374,0.503,0.704,0.503,1.192c0,1.077-0.819,1.623-1.81,1.623h-3.159
		c-0.545,0-1.02-0.101-1.45-0.459c-0.388-0.316-0.675-0.833-0.675-1.335c0-0.459,0.258-0.861,0.761-0.861
		c0.417,0,0.675,0.345,0.675,0.732c0,0.431,0.229,0.488,0.631,0.488h3.116c0.115,0,0.474,0.043,0.474-0.172
		c0-0.115-0.201-0.33-0.258-0.416l-4.925-6.332c-0.301-0.388-0.474-0.675-0.474-1.178c0-0.574,0.273-1.063,0.761-1.378
		c0.402-0.258,0.732-0.258,1.192-0.258h3.044c0.546,0,1.005,0.115,1.422,0.474c0.373,0.331,0.675,0.862,0.675,1.364
		c0,0.459-0.23,0.833-0.747,0.833c-0.431,0-0.689-0.273-0.689-0.675c0-0.488-0.244-0.56-0.689-0.56h-3.044
		c-0.158,0-0.488-0.043-0.488,0.201c0,0.129,0.158,0.302,0.215,0.388L392.436,75.147z"/>
	<path d="M402.902,70.826c0.272,0.56,0.373,0.977,0.373,1.594c0,0.689-0.187,1.12-0.474,1.709l-1.321,2.642
		c-0.345,0.689-0.919,1.192-1.752,1.192s-1.407-0.502-1.752-1.192l-1.32-2.642c-0.287-0.589-0.475-1.02-0.475-1.709
		c0-0.617,0.101-1.034,0.374-1.594l1.436-2.857c0.345-0.675,0.934-1.177,1.737-1.177c0.805,0,1.393,0.502,1.737,1.177
		L402.902,70.826z M400.217,68.658c-0.115-0.23-0.187-0.431-0.488-0.431s-0.373,0.201-0.488,0.431l-1.292,2.599
		c-0.216,0.417-0.33,0.689-0.33,1.163c0,0.374,0.086,0.632,0.244,0.948l1.378,2.728c0.101,0.201,0.201,0.431,0.488,0.431
		s0.388-0.229,0.488-0.431l1.379-2.728c0.157-0.316,0.243-0.574,0.243-0.948c0-0.474-0.114-0.747-0.33-1.163L400.217,68.658z"/>
	<path d="M411.817,66.791h1.795v10.453c0,0.459-0.201,0.718-0.718,0.718c-0.518,0-0.719-0.258-0.719-0.718v-8.472h-0.028
		l-1.364,2.024v0.23c0,0.445-0.172,0.861-0.718,0.861c-0.517,0-0.718-0.417-0.718-0.861v-0.23l-1.364-2.024h-0.028v8.472
		c0,0.459-0.201,0.718-0.718,0.718c-0.518,0-0.719-0.258-0.719-0.718V66.791h1.795l1.752,2.527L411.817,66.791z"/>
</g>
<line fill="none" stroke="#E6E6E6" stroke-width="6" stroke-miterlimit="10" x1="240" y1="451" x2="240" y2="152"/>
<polyline fill="#D4145A" points="269,270 320,270 320,192 286,192 "/>
<polyline fill="#00A99D" points="286,192 160,192 160,270 269,270 "/>
<g>
	<path d="M184.449,236.82c0,0.459-0.201,0.718-0.718,0.718c-0.517,0-0.718-0.258-0.718-0.718v-10.453h4.824
		c1.135,0,2.269,0.804,2.269,2.082v0.991c0,1.35-1.12,2.039-2.269,2.039h-1.321l3.23,4.623c0.158,0.215,0.359,0.488,0.359,0.761
		c0,0.402-0.331,0.675-0.732,0.675c-0.287,0-0.474-0.172-0.632-0.402l-3.963-5.657h-0.33V236.82z M184.449,230.043h3.188
		c0.402,0,1.034-0.029,1.034-0.603v-0.991c0-0.574-0.589-0.646-1.02-0.646h-3.202V230.043z"/>
	<path d="M199.725,236.102c0.374,0,0.718,0.201,0.718,0.718c0,0.517-0.345,0.718-0.718,0.718h-6.375v-11.171h6.375
		c0.374,0,0.718,0.201,0.718,0.718c0,0.517-0.345,0.718-0.718,0.718h-4.939v3.432h2.11c0.374,0,0.718,0.201,0.718,0.718
		s-0.345,0.718-0.718,0.718h-2.11v3.432H199.725z"/>
	<path d="M209.357,227.1c0-0.459,0.201-0.718,0.718-0.718c0.517,0,0.718,0.259,0.718,0.718v10.453h-1.896l-3.748-8.615v-0.015
		h-0.028v7.897c0,0.459-0.201,0.718-0.718,0.718c-0.517,0-0.718-0.258-0.718-0.718v-10.453h1.896l3.748,8.716h-0.015h0.029
		L209.357,227.1z"/>
	<path d="M215.43,227.803h-0.531c-0.474,0-0.876-0.172-0.876-0.718c0-0.517,0.388-0.718,0.833-0.718h2.398
		c1.12,0,1.68,0.459,2.168,1.436l1.263,2.527c0.288,0.589,0.431,1.005,0.431,1.666c0,0.574-0.158,1.063-0.417,1.58l-1.307,2.613
		c-0.502,1.02-1.149,1.35-2.269,1.35h-2.384c-0.373,0-0.718-0.201-0.718-0.718c0-0.517,0.345-0.718,0.718-0.718h0.689V227.803z
		 M216.866,236.102h0.273c0.603,0,0.747-0.072,1.005-0.603l1.264-2.556c0.158-0.33,0.273-0.574,0.273-0.933
		c0-0.488-0.158-0.761-0.359-1.178l-1.192-2.426c-0.301-0.618-0.431-0.603-1.091-0.603h-0.172V236.102z"/>
	<path d="M230.735,236.102c0.374,0,0.718,0.201,0.718,0.718c0,0.517-0.345,0.718-0.718,0.718h-6.375v-11.171h6.375
		c0.374,0,0.718,0.201,0.718,0.718c0,0.517-0.345,0.718-0.718,0.718h-4.939v3.432h2.11c0.374,0,0.718,0.201,0.718,0.718
		s-0.345,0.718-0.718,0.718h-2.11v3.432H230.735z"/>
	<path d="M236.132,236.82c0,0.459-0.201,0.718-0.718,0.718c-0.517,0-0.718-0.258-0.718-0.718v-10.453h4.824
		c1.135,0,2.269,0.804,2.269,2.082v0.991c0,1.35-1.12,2.039-2.269,2.039H238.2l3.23,4.623c0.158,0.215,0.359,0.488,0.359,0.761
		c0,0.402-0.331,0.675-0.732,0.675c-0.287,0-0.474-0.172-0.632-0.402l-3.963-5.657h-0.33V236.82z M236.132,230.043h3.188
		c0.402,0,1.034-0.029,1.034-0.603v-0.991c0-0.574-0.589-0.646-1.02-0.646h-3.202V230.043z"/>
	<path d="M256.806,227.803v0.517c0,0.459-0.201,0.718-0.718,0.718c-0.517,0-0.718-0.259-0.718-0.718v-1.953h7.093v1.953
		c0,0.459-0.201,0.718-0.718,0.718c-0.517,0-0.718-0.259-0.718-0.718v-0.517h-1.393v9.017c0,0.459-0.201,0.718-0.718,0.718
		c-0.517,0-0.718-0.258-0.718-0.718v-9.017H256.806z"/>
	<path d="M267.143,236.82c0,0.459-0.201,0.718-0.718,0.718c-0.517,0-0.718-0.258-0.718-0.718v-10.453h4.824
		c1.134,0,2.269,0.804,2.269,2.082v0.991c0,1.35-1.12,2.039-2.269,2.039h-1.321l3.23,4.623c0.158,0.215,0.359,0.488,0.359,0.761
		c0,0.402-0.331,0.675-0.732,0.675c-0.287,0-0.474-0.172-0.632-0.402l-3.963-5.657h-0.33V236.82z M267.143,230.043h3.188
		c0.402,0,1.034-0.029,1.034-0.603v-0.991c0-0.574-0.589-0.646-1.02-0.646h-3.202V230.043z"/>
	<path d="M282.418,236.102c0.374,0,0.718,0.201,0.718,0.718c0,0.517-0.345,0.718-0.718,0.718h-6.375v-11.171h6.375
		c0.374,0,0.718,0.201,0.718,0.718c0,0.517-0.345,0.718-0.718,0.718h-4.939v3.432h2.11c0.374,0,0.718,0.201,0.718,0.718
		s-0.345,0.718-0.718,0.718h-2.11v3.432H282.418z"/>
	<path d="M292.755,236.102c0.374,0,0.718,0.201,0.718,0.718c0,0.517-0.345,0.718-0.718,0.718h-6.375v-11.171h6.375
		c0.374,0,0.718,0.201,0.718,0.718c0,0.517-0.345,0.718-0.718,0.718h-4.939v3.432h2.11c0.374,0,0.718,0.201,0.718,0.718
		s-0.345,0.718-0.718,0.718h-2.11v3.432H292.755z"/>
</g>
<polyline fill="#D4145A" points="275,522 320,522 320,444 297,444 "/>
<polyline fill="#C3A6F0" points="297,444 160,444 160,522 275,522 "/>
<g>
	<path d="M201.232,489.98c-1.077,0-1.694-0.431-2.154-1.364l-1.321-2.671c-0.244-0.487-0.388-0.947-0.388-1.507
		c0-0.632,0.115-1.02,0.402-1.594l1.321-2.657c0.488-0.99,1.105-1.378,2.211-1.378h2.441c0.316,0,0.718,0.172,0.718,0.718
		c0,0.517-0.388,0.718-0.718,0.718h-2.398c-0.617,0-0.718,0.058-0.991,0.604l-1.249,2.498c-0.187,0.388-0.301,0.646-0.301,1.092
		c0,0.401,0.129,0.646,0.301,0.99l1.221,2.484c0.287,0.589,0.431,0.632,1.077,0.632h2.34c0.316,0,0.718,0.172,0.718,0.718
		c0,0.517-0.388,0.718-0.718,0.718H201.232z"/>
	<path d="M214.426,482.845c0.273,0.56,0.374,0.976,0.374,1.594c0,0.688-0.187,1.119-0.474,1.708l-1.321,2.643
		c-0.345,0.688-0.919,1.191-1.752,1.191c-0.833,0-1.407-0.503-1.751-1.191l-1.321-2.643c-0.287-0.589-0.474-1.02-0.474-1.708
		c0-0.618,0.101-1.034,0.373-1.594l1.436-2.857c0.345-0.675,0.934-1.178,1.737-1.178c0.804,0,1.393,0.503,1.737,1.178
		L214.426,482.845z M211.741,480.676c-0.115-0.229-0.187-0.431-0.488-0.431c-0.301,0-0.373,0.201-0.488,0.431l-1.292,2.6
		c-0.215,0.416-0.33,0.688-0.33,1.163c0,0.373,0.086,0.632,0.244,0.947l1.378,2.729c0.101,0.2,0.201,0.431,0.488,0.431
		s0.388-0.23,0.488-0.431l1.378-2.729c0.158-0.315,0.244-0.574,0.244-0.947c0-0.475-0.115-0.747-0.33-1.163L211.741,480.676z"/>
	<path d="M223.341,478.81h1.795v10.453c0,0.459-0.201,0.718-0.718,0.718c-0.517,0-0.718-0.259-0.718-0.718v-8.472h-0.029
		l-1.364,2.024v0.229c0,0.445-0.172,0.862-0.718,0.862c-0.517,0-0.718-0.417-0.718-0.862v-0.229l-1.364-2.024h-0.028v8.472
		c0,0.459-0.201,0.718-0.718,0.718c-0.517,0-0.718-0.259-0.718-0.718V478.81h1.795l1.751,2.527L223.341,478.81z"/>
	<path d="M229.816,489.263c0,0.459-0.201,0.718-0.718,0.718c-0.517,0-0.718-0.259-0.718-0.718V478.81h4.767
		c0.66,0,1.134,0.101,1.651,0.589c0.618,0.574,0.675,1.105,0.675,1.881v1.953c0,0.731-0.058,1.249-0.589,1.838
		c-0.56,0.631-1.149,0.688-1.924,0.688h-3.144V489.263z M229.816,484.323h3.188c0.847,0,1.034-0.216,1.034-1.034v-2.01
		c0-0.818-0.187-1.034-1.034-1.034h-3.188V484.323z"/>
	<path d="M245.437,482.845c0.273,0.56,0.374,0.976,0.374,1.594c0,0.688-0.187,1.119-0.474,1.708l-1.321,2.643
		c-0.345,0.688-0.919,1.191-1.752,1.191c-0.833,0-1.407-0.503-1.751-1.191l-1.321-2.643c-0.287-0.589-0.474-1.02-0.474-1.708
		c0-0.618,0.101-1.034,0.373-1.594l1.436-2.857c0.345-0.675,0.933-1.178,1.737-1.178s1.393,0.503,1.737,1.178L245.437,482.845z
		 M242.751,480.676c-0.115-0.229-0.187-0.431-0.488-0.431c-0.301,0-0.373,0.201-0.488,0.431l-1.292,2.6
		c-0.215,0.416-0.33,0.688-0.33,1.163c0,0.373,0.086,0.632,0.244,0.947l1.378,2.729c0.101,0.2,0.201,0.431,0.488,0.431
		s0.388-0.23,0.488-0.431l1.378-2.729c0.158-0.315,0.244-0.574,0.244-0.947c0-0.475-0.115-0.747-0.33-1.163L242.751,480.676z"/>
	<path d="M255.644,487.166c0.287,0.373,0.503,0.704,0.503,1.192c0,1.076-0.819,1.622-1.81,1.622h-3.159
		c-0.545,0-1.02-0.101-1.45-0.459c-0.388-0.316-0.675-0.833-0.675-1.336c0-0.459,0.258-0.861,0.761-0.861
		c0.417,0,0.675,0.345,0.675,0.732c0,0.431,0.229,0.488,0.631,0.488h3.116c0.115,0,0.474,0.043,0.474-0.173
		c0-0.114-0.201-0.33-0.258-0.416l-4.925-6.332c-0.301-0.388-0.474-0.675-0.474-1.178c0-0.574,0.273-1.063,0.761-1.378
		c0.402-0.259,0.732-0.259,1.192-0.259h3.044c0.546,0,1.005,0.115,1.422,0.474c0.373,0.33,0.675,0.861,0.675,1.364
		c0,0.459-0.23,0.833-0.747,0.833c-0.431,0-0.689-0.273-0.689-0.675c0-0.488-0.244-0.561-0.689-0.561h-3.044
		c-0.158,0-0.488-0.043-0.488,0.201c0,0.129,0.158,0.302,0.215,0.388L255.644,487.166z"/>
	<path d="M263.655,488.545h2.11c0.374,0,0.718,0.201,0.718,0.718s-0.345,0.718-0.718,0.718h-5.657c-0.373,0-0.718-0.201-0.718-0.718
		s0.345-0.718,0.718-0.718h2.111v-8.3h-2.111c-0.373,0-0.718-0.201-0.718-0.718s0.345-0.718,0.718-0.718h5.657
		c0.374,0,0.718,0.201,0.718,0.718s-0.345,0.718-0.718,0.718h-2.11V488.545z"/>
	<path d="M271.163,480.245v0.518c0,0.459-0.201,0.718-0.718,0.718c-0.517,0-0.718-0.259-0.718-0.718v-1.953h7.093v1.953
		c0,0.459-0.201,0.718-0.718,0.718c-0.517,0-0.718-0.259-0.718-0.718v-0.518h-1.393v9.018c0,0.459-0.201,0.718-0.718,0.718
		c-0.517,0-0.718-0.259-0.718-0.718v-9.018H271.163z"/>
</g>
<circle fill="#E6E6E6" cx="240.291" cy="152.31" r="13.388"/>
<path fill-rule="evenodd" clip-rule="evenodd" fill="#C69C6D" d="M239.425,146.706c0-0.607,0.493-1.101,1.101-1.101
	c0.607,0,1.1,0.494,1.1,1.101s-0.493,1.101-1.1,1.101C239.918,147.806,239.425,147.313,239.425,146.706z M244.8,156.012
	c-0.526-0.304-0.706-0.977-0.402-1.503c0.303-0.526,0.977-0.706,1.502-0.402c0.526,0.304,0.706,0.977,0.403,1.503
	C245.999,156.135,245.326,156.315,244.8,156.012z M234.75,155.609c-0.303-0.526-0.123-1.199,0.403-1.503s1.199-0.124,1.503,0.402
	c0.304,0.526,0.124,1.199-0.402,1.503C235.728,156.315,235.055,156.135,234.75,155.609z M239.426,157.844
	c0-0.45,0.271-0.837,0.658-1.007v-1.861c-1.352-0.212-2.387-1.386-2.387-2.798c0-0.328,0.055-0.643,0.158-0.936l-1.499-0.866
	c-0.341,0.25-0.813,0.292-1.202,0.066c-0.526-0.304-0.707-0.977-0.403-1.503c0.303-0.526,0.977-0.707,1.502-0.402
	c0.389,0.224,0.588,0.65,0.544,1.07l1.479,0.854c0.519-0.678,1.335-1.116,2.253-1.116c0.916,0,1.731,0.436,2.249,1.111l1.478-0.853
	c-0.042-0.419,0.158-0.842,0.544-1.066c0.526-0.303,1.199-0.123,1.503,0.403c0.304,0.526,0.124,1.199-0.402,1.503
	c-0.392,0.226-0.865,0.184-1.208-0.069l-1.492,0.862c0.105,0.295,0.162,0.613,0.162,0.943c0,1.414-1.037,2.586-2.392,2.799v1.861
	c0.387,0.171,0.656,0.558,0.656,1.006c0,0.607-0.494,1.101-1.101,1.101S239.426,158.451,239.426,157.844z"/>
<path fill="#FBB03B" d="M255.241,411.986c-4.771,1.264-9.782,1.937-14.951,1.937c-32.156,0-58.223-26.067-58.223-58.224
	c0-32.155,26.067-58.223,58.223-58.223c16.078,0,30.633,6.517,41.17,17.053"/>
<path fill="#D4145A" d="M281.46,314.529c10.537,10.536,17.053,25.092,17.053,41.17c0,26.988-18.361,49.688-43.272,56.287"/>
<g>
	<path d="M213.163,355.664c0,0.459-0.201,0.718-0.718,0.718c-0.517,0-0.718-0.259-0.718-0.718v-10.453h4.767
		c0.66,0,1.134,0.101,1.651,0.589c0.617,0.574,0.675,1.105,0.675,1.881v1.953c0,0.731-0.058,1.249-0.589,1.838
		c-0.56,0.631-1.149,0.688-1.924,0.688h-3.145V355.664z M213.163,350.725h3.188c0.847,0,1.034-0.216,1.034-1.034v-2.01
		c0-0.818-0.187-1.034-1.034-1.034h-3.188V350.725z"/>
	<path d="M224.878,345.943c0.115-0.388,0.272-0.732,0.732-0.732c0.474,0,0.646,0.359,0.747,0.732l2.771,9.721
		c0.101,0.345-0.287,0.718-0.689,0.718c-0.445,0-0.675-0.373-0.775-0.718l-0.531-1.724h-3.058l-0.546,1.724
		c-0.101,0.345-0.33,0.718-0.775,0.718c-0.402,0-0.79-0.373-0.689-0.718L224.878,345.943z M225.625,348.614h-0.029l-1.12,3.891
		h2.254L225.625,348.614z"/>
	<path d="M236.665,354.946h2.11c0.374,0,0.718,0.201,0.718,0.718s-0.345,0.718-0.718,0.718h-5.657c-0.373,0-0.718-0.201-0.718-0.718
		s0.345-0.718,0.718-0.718h2.111v-8.3h-2.111c-0.373,0-0.718-0.201-0.718-0.718s0.345-0.718,0.718-0.718h5.657
		c0.374,0,0.718,0.201,0.718,0.718s-0.345,0.718-0.718,0.718h-2.11V354.946z"/>
	<path d="M248.409,345.943c0-0.46,0.201-0.718,0.718-0.718c0.517,0,0.718,0.258,0.718,0.718v10.453h-1.896l-3.748-8.615v-0.015
		h-0.028v7.897c0,0.459-0.201,0.718-0.718,0.718c-0.517,0-0.718-0.259-0.718-0.718v-10.453h1.896l3.748,8.716h-0.015h0.029
		L248.409,345.943z"/>
	<path d="M254.51,346.646v0.518c0,0.459-0.201,0.718-0.718,0.718c-0.517,0-0.718-0.259-0.718-0.718v-1.953h7.093v1.953
		c0,0.459-0.201,0.718-0.718,0.718c-0.517,0-0.718-0.259-0.718-0.718v-0.518h-1.393v9.018c0,0.459-0.201,0.718-0.718,0.718
		c-0.517,0-0.718-0.259-0.718-0.718v-9.018H254.51z"/>
	<path d="M267.316,345.211c0.618,0,0.646,0.373,0.618,1.063l-0.258,4.925c-0.029,0.503-0.144,0.919-0.732,0.919
		c-0.589,0-0.704-0.416-0.732-0.919l-0.258-4.925c-0.043-0.689,0.014-1.063,0.632-1.063H267.316z M267.129,354.372
		c0.546,0,0.804,0.272,0.804,0.818v0.373c0,0.546-0.258,0.818-0.804,0.818h-0.373c-0.546,0-0.804-0.272-0.804-0.818v-0.373
		c0-0.546,0.258-0.818,0.804-0.818H267.129z"/>
</g>
<g>
	<path d="M204.718,362.826c0.124-0.155,0.208-0.278,0.417-0.278c0.201,0,0.355,0.193,0.355,0.386c0,0.132-0.085,0.239-0.155,0.332
		l-0.833,1.097c-0.201,0.263-0.201,0.278-0.201,0.603v1.173c0,0.324,0,0.34,0.201,0.603l0.811,1.073
		c0.077,0.108,0.178,0.224,0.178,0.355c0,0.216-0.162,0.386-0.371,0.386c-0.186,0-0.271-0.116-0.378-0.247l-0.765-0.942
		c-0.339-0.416-0.448-0.687-0.448-1.228v-1.173c0-0.533,0.108-0.812,0.448-1.229L204.718,362.826z"/>
	<path d="M208.258,364.941c0-0.271,0.031-0.548,0.371-0.548c0.293,0,0.371,0.247,0.371,0.494v0.301l0.579-0.479
		c0.208-0.17,0.424-0.316,0.656-0.316h0.594c0.286,0,0.525,0.092,0.726,0.293c0.247,0.247,0.332,0.502,0.332,0.842
		c0,0.255-0.046,0.517-0.363,0.517c-0.27,0-0.378-0.216-0.378-0.455c0-0.123,0-0.216-0.077-0.324
		c-0.092-0.131-0.27-0.131-0.448-0.131h-0.216c-0.139,0-0.239,0.069-0.371,0.177l-1.034,0.857v1.876c0,0.255-0.054,0.51-0.371,0.51
		c-0.317,0-0.371-0.255-0.371-0.51V364.941z"/>
	<path d="M215.179,368.555c-0.309,0-0.433,0-0.664-0.201l-0.317-0.277c-0.293-0.263-0.378-0.433-0.378-0.834v-1.429
		c0-0.394,0.054-0.625,0.363-0.888l0.262-0.224c0.348-0.302,0.518-0.309,0.818-0.309h0.68c0.363,0,0.533,0.038,0.818,0.27
		l0.301,0.239c0.34,0.271,0.386,0.557,0.386,0.966v0.594c0,0.425-0.069,0.549-0.509,0.549h-2.378v0.247
		c0,0.069,0.054,0.162,0.108,0.216l0.185,0.201c0.101,0.107,0.247,0.139,0.494,0.139h1.591c0.247,0,0.509,0.054,0.509,0.37
		c0,0.325-0.293,0.371-0.509,0.371H215.179z M214.562,366.27h2.146v-0.448c0-0.139,0.008-0.255-0.092-0.348l-0.286-0.247
		c-0.093-0.085-0.24-0.092-0.355-0.092h-0.625c-0.139,0-0.254,0-0.378,0.084l-0.255,0.186c-0.093,0.069-0.154,0.124-0.154,0.34
		V366.27z"/>
	<path d="M220.124,365.891v2.154c0,0.255-0.054,0.51-0.371,0.51c-0.317,0-0.371-0.255-0.371-0.51v-3.104
		c0-0.271,0.031-0.548,0.371-0.548c0.332,0,0.371,0.277,0.371,0.54v0.085v0.016l0.602-0.394c0.193-0.124,0.401-0.247,0.641-0.247
		h0.548c0.286,0,0.463,0.077,0.687,0.27c0.332,0.286,0.317,0.603,0.332,1.004l0.077,2.332c0.008,0.263-0.031,0.556-0.363,0.556
		c-0.301,0-0.363-0.255-0.371-0.502l-0.077-2.285c-0.015-0.456-0.054-0.633-0.502-0.633h-0.247c-0.077,0-0.154,0.022-0.231,0.069
		L220.124,365.891z"/>
	<path d="M226.976,364.394c0.255,0,0.463,0.139,0.733,0.409l0.124,0.131v-1.56c0-0.255,0.054-0.51,0.371-0.51
		c0.317,0,0.371,0.255,0.371,0.51v4.663c0,0.255-0.054,0.518-0.371,0.518c-0.293,0-0.371-0.247-0.371-0.494v-0.046l-0.162,0.162
		c-0.231,0.216-0.486,0.378-0.71,0.378h-0.718c-0.247,0-0.525-0.17-0.633-0.263l-0.254-0.216c-0.309-0.263-0.409-0.464-0.409-0.857
		v-1.49c0-0.394,0.1-0.594,0.409-0.856l0.254-0.217c0.232-0.2,0.402-0.262,0.71-0.262H226.976z M225.687,366.926
		c0,0.208,0,0.471,0.116,0.563l0.224,0.178c0.093,0.077,0.186,0.146,0.278,0.146h0.525c0.093,0,0.224-0.062,0.363-0.186l0.425-0.362
		c0.108-0.093,0.216-0.186,0.216-0.324v-0.935c0-0.139-0.108-0.231-0.216-0.324l-0.425-0.363c-0.139-0.123-0.27-0.185-0.363-0.185
		h-0.525c-0.093,0-0.186,0.069-0.278,0.146l-0.224,0.178c-0.116,0.092-0.116,0.354-0.116,0.563V366.926z"/>
	<path d="M231.867,368.555c-0.309,0-0.433,0-0.664-0.201l-0.317-0.277c-0.293-0.263-0.378-0.433-0.378-0.834v-1.429
		c0-0.394,0.054-0.625,0.363-0.888l0.262-0.224c0.348-0.302,0.518-0.309,0.818-0.309h0.68c0.363,0,0.533,0.038,0.818,0.27
		l0.301,0.239c0.34,0.271,0.386,0.557,0.386,0.966v0.594c0,0.425-0.069,0.549-0.509,0.549h-2.378v0.247
		c0,0.069,0.054,0.162,0.108,0.216l0.185,0.201c0.101,0.107,0.247,0.139,0.494,0.139h1.591c0.247,0,0.509,0.054,0.509,0.37
		c0,0.325-0.293,0.371-0.509,0.371H231.867z M231.249,366.27h2.146v-0.448c0-0.139,0.008-0.255-0.092-0.348l-0.286-0.247
		c-0.093-0.085-0.24-0.092-0.355-0.092h-0.625c-0.139,0-0.254,0-0.378,0.084l-0.255,0.186c-0.093,0.069-0.154,0.124-0.154,0.34
		V366.27z"/>
	<path d="M236.07,364.941c0-0.271,0.031-0.548,0.371-0.548c0.293,0,0.371,0.247,0.371,0.494v0.301l0.579-0.479
		c0.208-0.17,0.424-0.316,0.656-0.316h0.594c0.286,0,0.525,0.092,0.726,0.293c0.247,0.247,0.332,0.502,0.332,0.842
		c0,0.255-0.046,0.517-0.363,0.517c-0.27,0-0.378-0.216-0.378-0.455c0-0.123,0-0.216-0.077-0.324
		c-0.092-0.131-0.27-0.131-0.448-0.131h-0.216c-0.139,0-0.239,0.069-0.371,0.177l-1.034,0.857v1.876c0,0.255-0.054,0.51-0.371,0.51
		c-0.317,0-0.371-0.255-0.371-0.51V364.941z"/>
	<path d="M243.833,367.813h0.556c0.247,0,0.509,0.054,0.509,0.37c0,0.325-0.293,0.371-0.509,0.371h-1.884
		c-0.216,0-0.509-0.046-0.509-0.371c0-0.316,0.262-0.37,0.509-0.37h0.587v-4.208h-0.587c-0.216,0-0.509-0.046-0.509-0.37
		c0-0.317,0.262-0.371,0.509-0.371h0.78c0.425,0,0.548,0.077,0.548,0.518V367.813z"/>
	<path d="M248.438,365.135c-0.216,0-0.509-0.047-0.509-0.371c0-0.316,0.262-0.37,0.509-0.37h1.02c0.386,0,0.664,0.038,0.957,0.331
		c0.286,0.286,0.324,0.51,0.332,0.881l0.077,2.517c0.008,0.217-0.1,0.433-0.347,0.433c-0.193,0-0.386-0.162-0.378-0.371l-0.51,0.263
		c-0.208,0.108-0.216,0.108-0.455,0.108h-0.71c-0.332,0-0.571-0.039-0.842-0.263c-0.309-0.255-0.386-0.524-0.386-0.911v-0.324
		c0-0.355,0.084-0.579,0.363-0.826c0.255-0.224,0.541-0.277,0.865-0.277h1.59v-0.17c0-0.557-0.124-0.648-0.656-0.648H248.438z
		 M248.431,366.694c-0.201,0-0.494,0.054-0.494,0.324v0.494c0,0.247,0.301,0.301,0.479,0.301h0.818l0.818-0.425v-0.162
		c0-0.409-0.116-0.532-0.525-0.532H248.431z"/>
	<path d="M255.646,365.327v-0.425c0-0.255,0.054-0.509,0.371-0.509c0.317,0,0.371,0.254,0.371,0.509v0.302
		c0,0.185-0.015,0.309-0.092,0.471l-1.869,4.069c-0.162,0.347-0.247,0.386-0.587,0.386h-0.571c-0.216,0-0.509-0.047-0.509-0.371
		c0-0.316,0.262-0.37,0.509-0.37h0.51l0.548-1.135h-0.039c-0.309,0-0.324-0.14-0.44-0.395l-0.911-2.015
		c-0.1-0.224-0.177-0.394-0.177-0.61v-0.332c0-0.255,0.054-0.509,0.371-0.509c0.316,0,0.371,0.254,0.371,0.509v0.425l0.996,2.186
		h0.162L255.646,365.327z"/>
	<path d="M259.68,368.555c-0.309,0-0.433,0-0.664-0.201l-0.317-0.277c-0.293-0.263-0.378-0.433-0.378-0.834v-1.429
		c0-0.394,0.054-0.625,0.363-0.888l0.262-0.224c0.348-0.302,0.518-0.309,0.819-0.309h0.679c0.363,0,0.533,0.038,0.818,0.27
		l0.301,0.239c0.34,0.271,0.386,0.557,0.386,0.966v0.594c0,0.425-0.069,0.549-0.509,0.549h-2.378v0.247
		c0,0.069,0.054,0.162,0.108,0.216l0.185,0.201c0.101,0.107,0.247,0.139,0.494,0.139h1.591c0.247,0,0.509,0.054,0.509,0.37
		c0,0.325-0.293,0.371-0.509,0.371H259.68z M259.062,366.27h2.146v-0.448c0-0.139,0.008-0.255-0.092-0.348l-0.286-0.247
		c-0.093-0.085-0.24-0.092-0.355-0.092h-0.625c-0.139,0-0.254,0-0.378,0.084l-0.255,0.186c-0.093,0.069-0.154,0.124-0.154,0.34
		V366.27z"/>
	<path d="M263.883,364.941c0-0.271,0.031-0.548,0.371-0.548c0.293,0,0.371,0.247,0.371,0.494v0.301l0.579-0.479
		c0.208-0.17,0.425-0.316,0.657-0.316h0.594c0.286,0,0.525,0.092,0.726,0.293c0.247,0.247,0.332,0.502,0.332,0.842
		c0,0.255-0.046,0.517-0.363,0.517c-0.27,0-0.378-0.216-0.378-0.455c0-0.123,0-0.216-0.077-0.324
		c-0.092-0.131-0.27-0.131-0.448-0.131h-0.216c-0.139,0-0.239,0.069-0.371,0.177l-1.034,0.857v1.876c0,0.255-0.054,0.51-0.371,0.51
		c-0.317,0-0.371-0.255-0.371-0.51V364.941z"/>
	<path d="M270.712,365.135c-0.154,0-0.417-0.031-0.417,0.208c0,0.124,0.093,0.17,0.201,0.216l1.853,0.842
		c0.479,0.217,0.726,0.518,0.726,1.05c0,0.749-0.509,1.104-1.22,1.104h-1.143c-0.386,0-0.648-0.016-0.927-0.231
		c-0.139-0.108-0.339-0.247-0.339-0.433c0-0.208,0.177-0.37,0.386-0.37c0.116,0,0.201,0.038,0.286,0.131
		c0.131,0.146,0.363,0.162,0.595,0.162h1.003c0.263,0,0.618,0.023,0.618-0.409c0-0.178-0.216-0.293-0.386-0.371l-1.745-0.795
		c-0.409-0.186-0.648-0.425-0.648-0.903c0-0.587,0.463-0.941,1.019-0.941h1.266c0.409,0,0.579,0.022,0.857,0.254
		c0.139,0.116,0.293,0.209,0.293,0.417c0,0.209-0.177,0.371-0.378,0.371c-0.139,0-0.224-0.054-0.317-0.154
		c-0.124-0.132-0.254-0.146-0.456-0.146H270.712z"/>
	<path d="M277.355,363.736c0.339,0.417,0.448,0.695,0.448,1.229v1.173c0,0.541-0.108,0.812-0.448,1.228l-0.765,0.942
		c-0.108,0.131-0.193,0.247-0.378,0.247c-0.208,0-0.371-0.17-0.371-0.386c0-0.132,0.101-0.247,0.178-0.355l0.811-1.073
		c0.201-0.263,0.201-0.278,0.201-0.603v-1.173c0-0.324,0-0.34-0.201-0.603l-0.833-1.097c-0.07-0.093-0.155-0.2-0.155-0.332
		c0-0.192,0.155-0.386,0.355-0.386c0.208,0,0.293,0.123,0.417,0.278L277.355,363.736z"/>
</g>
<g>
	<path fill="#D4145A" d="M105.014,137.261l-10.688,14.063v0.225l16.988-2.25v7.65l-16.988-2.024v0.225l10.8,13.5l-7.088,4.051
		l-6.75-15.751h-0.225l-7.313,15.863l-6.413-4.05l10.688-13.726v-0.226l-16.65,2.138v-7.65l16.538,2.138v-0.225l-10.575-13.726
		l6.862-3.938l6.976,15.638H91.4l6.863-15.75L105.014,137.261z"/>
</g>
</svg>
